<?xml version="1.0" encoding="UTF-8" standalone="no"?>
<!DOCTYPE svg PUBLIC "-//W3C//DTD SVG 1.1//EN" "http://www.w3.org/Graphics/SVG/1.1/DTD/svg11.dtd">
<!-- Created with Vectornator (http://vectornator.io/) -->
<svg height="100%" stroke-miterlimit="10" style="fill-rule:nonzero;clip-rule:evenodd;stroke-linecap:round;stroke-linejoin:round;" version="1.1" viewBox="511.5 97.5 425 425" width="100%" xml:space="preserve" xmlns="http://www.w3.org/2000/svg" xmlns:xlink="http://www.w3.org/1999/xlink">
<defs>
<filter color-interpolation-filters="sRGB" filterUnits="userSpaceOnUse" height="425" id="Filter" width="425" x="511.5" y="97.5">
<feDropShadow dx="-3.67321e-05" dy="10" flood-color="#000000" flood-opacity="0.333" in="SourceGraphic" result="Shadow" stdDeviation="5"/>
</filter>
<filter color-interpolation-filters="sRGB" filterUnits="userSpaceOnUse" height="219.444" id="Filter_2" width="302.778" x="572.611" y="200.278">
<feDropShadow dx="-3.67321e-05" dy="10" flood-color="#000000" flood-opacity="0.333" in="SourceGraphic" result="Shadow" stdDeviation="5"/>
</filter>
</defs>
<g id="Keyboard">
<path d="M564 100L884 100C906.091 100 924 117.909 924 140L924 460C924 482.091 906.091 500 884 500L564 500C541.909 500 524 482.091 524 460L524 140C524 117.909 541.909 100 564 100Z" fill="#000000" fill-rule="nonzero" stroke="none"/>
<path d="M668.444 202.778L779.556 202.778C818.839 202.778 838.481 202.778 850.685 214.982C862.889 227.186 862.889 246.827 862.889 286.111L862.889 313.889C862.889 353.172 862.889 372.814 850.685 385.018C838.481 397.222 818.839 397.222 779.556 397.222L668.444 397.222C629.161 397.222 609.519 397.222 597.315 385.018C585.111 372.814 585.111 353.172 585.111 313.889L585.111 286.111C585.111 246.827 585.111 227.186 597.315 214.982C609.519 202.778 629.161 202.778 668.444 202.778ZM640.667 272.222C648.337 272.222 654.556 266.004 654.556 258.333C654.556 250.663 648.337 244.444 640.667 244.444C632.996 244.444 626.778 250.663 626.778 258.333C626.778 266.004 632.996 272.222 640.667 272.222ZM640.667 313.889C648.337 313.889 654.556 307.671 654.556 300C654.556 292.329 648.337 286.111 640.667 286.111C632.996 286.111 626.778 292.329 626.778 300C626.778 307.671 632.996 313.889 640.667 313.889ZM682.333 313.889C690.004 313.889 696.222 307.671 696.222 300C696.222 292.329 690.004 286.111 682.333 286.111C674.663 286.111 668.444 292.329 668.444 300C668.444 307.671 674.663 313.889 682.333 313.889ZM682.333 272.222C690.004 272.222 696.222 266.004 696.222 258.333C696.222 250.663 690.004 244.444 682.333 244.444C674.663 244.444 668.444 250.663 668.444 258.333C668.444 266.004 674.663 272.222 682.333 272.222ZM724 272.222C731.671 272.222 737.889 266.004 737.889 258.333C737.889 250.663 731.671 244.444 724 244.444C716.329 244.444 710.111 250.663 710.111 258.333C710.111 266.004 716.329 272.222 724 272.222ZM724 313.889C731.671 313.889 737.889 307.671 737.889 300C737.889 292.329 731.671 286.111 724 286.111C716.329 286.111 710.111 292.329 710.111 300C710.111 307.671 716.329 313.889 724 313.889ZM765.667 272.222C773.338 272.222 779.556 266.004 779.556 258.333C779.556 250.663 773.338 244.444 765.667 244.444C757.996 244.444 751.778 250.663 751.778 258.333C751.778 266.004 757.996 272.222 765.667 272.222ZM765.667 313.889C773.338 313.889 779.556 307.671 779.556 300C779.556 292.329 773.338 286.111 765.667 286.111C757.996 286.111 751.778 292.329 751.778 300C751.778 307.671 757.996 313.889 765.667 313.889ZM807.333 272.222C815.004 272.222 821.222 266.004 821.222 258.333C821.222 250.663 815.004 244.444 807.333 244.444C799.663 244.444 793.444 250.663 793.444 258.333C793.444 266.004 799.663 272.222 807.333 272.222ZM807.333 313.889C815.004 313.889 821.222 307.671 821.222 300C821.222 292.329 815.004 286.111 807.333 286.111C799.663 286.111 793.444 292.329 793.444 300C793.444 307.671 799.663 313.889 807.333 313.889ZM803.861 355.556C803.861 361.308 799.197 365.972 793.444 365.972L654.556 365.972C648.803 365.972 644.139 361.308 644.139 355.556C644.139 349.803 648.803 345.139 654.556 345.139L793.444 345.139C799.197 345.139 803.861 349.803 803.861 355.556Z" fill="#feffff" fill-rule="evenodd"  stroke="none"/>
</g>
</svg>
