<svg width="159" height="216" viewBox="0 0 159 216" fill="none" xmlns="http://www.w3.org/2000/svg">
<g clip-path="url(#clip0_21_731)">
<path d="M159 51.3297H157.821V18.8173C157.821 16.3462 157.337 13.8992 156.398 11.6162C155.458 9.33321 154.081 7.25881 152.345 5.51146C150.609 3.76412 148.548 2.37804 146.28 1.43238C144.012 0.486726 141.581 1.94883e-06 139.126 0H70.6914C68.2364 -5.84628e-06 65.8053 0.486713 63.5371 1.43236C61.2689 2.37802 59.208 3.76408 57.472 5.51142C55.736 7.25876 54.3589 9.33316 53.4194 11.6162C52.4799 13.8992 51.9963 16.3461 51.9963 18.8172V197.183C51.9963 202.173 53.966 206.96 57.472 210.488C60.978 214.017 65.7331 216 70.6914 216H139.126C144.084 216 148.839 214.017 152.345 210.489C155.851 206.96 157.821 202.173 157.821 197.183V74.4725H159L159 51.3297Z" fill="#3F3D56"/>
<path d="M139.88 4.89564H130.947C131.358 5.90939 131.515 7.00926 131.404 8.09837C131.293 9.18748 130.917 10.2324 130.311 11.1411C129.704 12.0498 128.885 12.7943 127.925 13.3092C126.965 13.824 125.894 14.0934 124.806 14.0934H85.6008C84.5131 14.0934 83.4421 13.824 82.4821 13.3092C81.5222 12.7943 80.7027 12.0498 80.096 11.1411C79.4893 10.2324 79.1139 9.18748 79.0029 8.09836C78.892 7.00925 79.0488 5.90937 79.4596 4.89563H71.1162C67.4134 4.89563 63.8623 6.37616 61.2441 9.01151C58.6258 11.6469 57.1549 15.2212 57.1549 18.9481V197.052C57.1549 198.897 57.516 200.725 58.2176 202.43C58.9193 204.134 59.9476 205.684 61.2441 206.989C62.5405 208.293 64.0796 209.329 65.7734 210.035C67.4673 210.741 69.2827 211.104 71.1161 211.104H139.88C141.714 211.104 143.529 210.741 145.223 210.035C146.917 209.329 148.456 208.293 149.752 206.989C151.049 205.684 152.077 204.134 152.779 202.43C153.48 200.725 153.841 198.897 153.841 197.052V18.9481C153.841 17.1027 153.48 15.2754 152.779 13.5705C152.077 11.8656 151.049 10.3164 149.752 9.01151C148.456 7.70662 146.917 6.67152 145.223 5.96532C143.529 5.25912 141.714 4.89564 139.88 4.89564Z" fill="white"/>
<path d="M145.094 39.9153H65.9026V176.085H145.094V39.9153Z" fill="#E6E6E6"/>
<path d="M39.3069 68.8479C42.937 71.8928 35.6768 81.3659 35.6768 81.3659C35.6768 81.3659 52.9197 82.0426 51.5584 82.0426C50.1971 82.0426 49.0627 67.6637 49.0627 67.6637C49.0627 67.6637 35.6768 65.8029 39.3069 68.8479Z" fill="#FFB8B8"/>
<path d="M32.2963 107.381L47.9242 113.02L56.4753 116.582C56.4753 116.582 62.0778 132.015 64.7316 138.841C67.3853 145.667 58.8342 156.649 58.8342 156.649C58.8342 156.649 59.7188 159.914 58.8342 161.397C58.377 162.155 57.9825 162.949 57.6548 163.772C57.3599 164.365 54.1164 164.069 50.578 163.772C47.0396 163.475 50.2831 157.836 50.2831 157.836C50.2831 157.836 53.2318 145.964 53.5267 145.667C53.802 145.39 54.5918 143.301 53.7342 142.543C52.9361 141.878 52.2803 141.057 51.8067 140.13C51.41 139.331 50.8964 138.596 50.2831 137.951C50.2831 137.951 40.9375 124.078 36.322 120.924C31.7066 117.769 20.989 121.517 20.989 121.517C20.989 121.517 26.1041 129.344 26.1041 131.125C26.1041 132.905 26.399 133.796 27.2836 134.389C28.1682 134.983 27.8733 136.17 27.8733 137.357C27.8733 138.544 28.7579 140.919 30.2322 142.106C31.7066 143.293 32.0014 144.48 31.7066 146.855C31.4117 149.229 23.4503 148.042 23.4503 148.042L19.6171 140.622C19.6171 140.622 13.7198 131.125 9.88651 121.034C7.96988 115.988 9.96022 112.575 12.4297 110.423C14.8092 108.392 17.8713 107.355 20.9868 107.525L34.8477 108.161L24.9247 105.303L32.2963 107.381Z" fill="#2F2E41"/>
<path d="M83.8978 80.9664L100.705 73.2498C100.705 73.2498 106.602 63.1588 103.064 61.9716C99.5257 60.7844 96.5771 70.8754 96.5771 70.8754L84.4876 73.2498L83.8978 80.9664Z" fill="#FFB8B8"/>
<path d="M17.2582 86.3086C17.2582 86.3086 8.70706 94.0253 8.41219 94.9157C8.11733 95.806 2.80974 98.1804 0.450817 94.0253C-1.90811 89.8702 5.7584 90.167 5.7584 90.167L11.066 83.3407L17.2582 86.3086Z" fill="#FFB8B8"/>
<path d="M8.60464 81.7468L17.7455 88.5731L32.7836 83.2308C29.9886 92.0391 32.1785 101.368 22.9976 106.771L57.7917 118.643C54.7123 106.163 59.5756 95.8316 63.7445 83.2308C70.348 79.8055 78.6306 80.6157 87.6287 83.2308V71.0623L51.0653 73.1398L45.4074 76.2012L38.681 74.327C28.944 72.7381 16.7788 76.2105 8.60464 81.7468Z" fill="black"/>
<path d="M31.1169 146.558C32.0015 147.151 33.4758 152.79 33.7707 154.868C34.0655 156.946 31.4117 157.836 29.9374 158.133C28.4631 158.43 28.7579 159.32 27.8733 160.21C26.9887 161.101 23.7452 161.397 19.3222 160.507C14.8992 159.617 21.3863 153.978 21.976 153.681C22.5658 153.384 24.3349 146.558 24.3349 146.558C24.3349 146.558 30.2323 145.964 31.1169 146.558Z" fill="#2F2E41"/>
<path d="M55.5907 162.882L57.9497 169.114L60.18 172.482C60.7873 173.38 61.1971 174.398 61.3817 175.468C61.5664 176.538 61.5218 177.636 61.2509 178.688C60.8753 180.079 60.0966 181.394 58.5394 181.876C54.7061 183.063 52.3472 175.644 52.3472 175.644C52.3472 175.644 50.2831 171.489 48.8088 167.63C47.3345 163.772 49.9883 161.694 49.9883 161.694L55.5907 162.882Z" fill="#2F2E41"/>
<path d="M44.2816 72.613C48.1893 72.613 51.3571 69.4245 51.3571 65.4912C51.3571 61.5579 48.1893 58.3694 44.2816 58.3694C40.3739 58.3694 37.206 61.5579 37.206 65.4912C37.206 69.4245 40.3739 72.613 44.2816 72.613Z" fill="#FFB8B8"/>
<path d="M52.3024 63.7311C52.6147 62.8328 52.7355 61.8783 52.6569 60.9299C52.5782 59.9814 52.3019 59.0603 51.846 58.2265C50.9371 56.6041 49.1868 55.0833 45.8218 54.9975C38.4802 54.8104 35.2988 60.3821 35.7124 62.0159C36.126 63.6498 37.6059 67.5371 37.6059 67.5371C37.6059 67.5371 36.6882 63.7939 38.5236 63.4196C40.3591 63.0453 47.4713 61.548 49.5362 63.2325C50.125 63.6863 50.5839 64.2891 50.866 64.9795C51.1481 65.6699 51.2434 66.4232 51.1422 67.1628L52.3024 63.7311Z" fill="#2F2E41"/>
<path d="M105.616 201.151C109.85 201.151 113.282 197.696 113.282 193.435C113.282 189.173 109.85 185.718 105.616 185.718C101.381 185.718 97.949 189.173 97.949 193.435C97.949 197.696 101.381 201.151 105.616 201.151Z" fill="#E6E6E6"/>
</g>
<defs>
<clipPath id="clip0_21_731">
<rect width="159" height="216" fill="white"/>
</clipPath>
</defs>
</svg>
