<svg width="393" height="852" viewBox="0 0 393 852" fill="none" xmlns="http://www.w3.org/2000/svg">
<rect width="393" height="852" fill="white"/>
<path d="M69.79 392L68.085 370.362H70.41L71.309 382.762L71.774 389.303H72.022L74.874 376.004H77.788L80.64 389.303H80.888L81.353 382.762L82.252 370.362H84.515L82.81 392H79.059L76.424 379.073H76.176L73.541 392H69.79ZM95.1669 392.372C94.0096 392.372 92.9659 392.176 92.0359 391.783C91.1266 391.39 90.3412 390.832 89.6799 390.109C89.0392 389.365 88.5432 388.487 88.1919 387.474C87.8406 386.441 87.6649 385.294 87.6649 384.033C87.6649 382.752 87.8406 381.594 88.1919 380.561C88.5639 379.528 89.0702 378.649 89.7109 377.926C90.3516 377.182 91.1162 376.614 92.0049 376.221C92.9142 375.828 93.9166 375.632 95.0119 375.632C96.0866 375.632 97.0579 375.828 97.9259 376.221C98.8146 376.614 99.5689 377.161 100.189 377.864C100.809 378.546 101.284 379.362 101.615 380.313C101.946 381.264 102.111 382.307 102.111 383.444V384.622H90.2689V385.366C90.2689 386.069 90.3826 386.72 90.6099 387.319C90.8372 387.918 91.1576 388.435 91.5709 388.869C92.0049 389.303 92.5216 389.644 93.1209 389.892C93.7409 390.119 94.4229 390.233 95.1669 390.233C96.2416 390.233 97.1716 389.985 97.9569 389.489C98.7422 388.993 99.3416 388.311 99.7549 387.443L101.584 388.683C101.109 389.758 100.313 390.646 99.1969 391.349C98.1016 392.031 96.7582 392.372 95.1669 392.372ZM95.0119 377.678C94.3299 377.678 93.6996 377.802 93.1209 378.05C92.5422 378.298 92.0359 378.639 91.6019 379.073C91.1886 379.507 90.8579 380.024 90.6099 380.623C90.3826 381.202 90.2689 381.842 90.2689 382.545V382.762H99.4449V382.421C99.4449 381.718 99.3312 381.078 99.1039 380.499C98.8972 379.92 98.5976 379.424 98.2049 379.011C97.8329 378.577 97.3679 378.246 96.8099 378.019C96.2726 377.792 95.6732 377.678 95.0119 377.678ZM106.656 389.892H112.236V371.168H106.656V369.06H114.716V389.892H120.296V392H106.656V389.892ZM132.622 392.372C131.464 392.372 130.431 392.176 129.522 391.783C128.633 391.37 127.879 390.801 127.259 390.078C126.639 389.355 126.163 388.476 125.833 387.443C125.523 386.41 125.368 385.263 125.368 384.002C125.368 382.741 125.533 381.594 125.864 380.561C126.194 379.528 126.67 378.649 127.29 377.926C127.91 377.182 128.664 376.614 129.553 376.221C130.441 375.828 131.454 375.632 132.591 375.632C134.141 375.632 135.401 375.973 136.373 376.655C137.344 377.337 138.057 378.226 138.512 379.321L136.528 380.375C136.238 379.548 135.753 378.908 135.071 378.453C134.409 377.998 133.583 377.771 132.591 377.771C131.867 377.771 131.216 377.895 130.638 378.143C130.08 378.37 129.604 378.701 129.212 379.135C128.819 379.569 128.519 380.086 128.313 380.685C128.127 381.284 128.034 381.935 128.034 382.638V385.366C128.034 386.069 128.127 386.72 128.313 387.319C128.519 387.918 128.819 388.435 129.212 388.869C129.604 389.303 130.09 389.644 130.669 389.892C131.247 390.119 131.909 390.233 132.653 390.233C133.727 390.233 134.616 389.985 135.319 389.489C136.021 388.993 136.579 388.311 136.993 387.443L138.76 388.652C138.284 389.727 137.54 390.615 136.528 391.318C135.536 392.021 134.234 392.372 132.622 392.372ZM150.652 392.372C149.536 392.372 148.523 392.176 147.614 391.783C146.725 391.39 145.96 390.832 145.32 390.109C144.7 389.365 144.224 388.487 143.894 387.474C143.563 386.441 143.398 385.283 143.398 384.002C143.398 382.741 143.563 381.594 143.894 380.561C144.224 379.528 144.7 378.649 145.32 377.926C145.96 377.182 146.725 376.614 147.614 376.221C148.523 375.828 149.536 375.632 150.652 375.632C151.768 375.632 152.77 375.828 153.659 376.221C154.568 376.614 155.333 377.182 155.953 377.926C156.593 378.649 157.079 379.528 157.41 380.561C157.74 381.594 157.906 382.741 157.906 384.002C157.906 385.283 157.74 386.441 157.41 387.474C157.079 388.487 156.593 389.365 155.953 390.109C155.333 390.832 154.568 391.39 153.659 391.783C152.77 392.176 151.768 392.372 150.652 392.372ZM150.652 390.233C152.036 390.233 153.152 389.82 154 388.993C154.847 388.166 155.271 386.885 155.271 385.149V382.855C155.271 381.119 154.847 379.838 154 379.011C153.152 378.184 152.036 377.771 150.652 377.771C149.267 377.771 148.151 378.184 147.304 379.011C146.456 379.838 146.033 381.119 146.033 382.855V385.149C146.033 386.885 146.456 388.166 147.304 388.993C148.151 389.82 149.267 390.233 150.652 390.233ZM161.613 392V376.004H163.907V377.864H164.031C164.279 377.244 164.631 376.717 165.085 376.283C165.54 375.849 166.212 375.632 167.1 375.632C168.03 375.632 168.723 375.87 169.177 376.345C169.632 376.8 169.911 377.399 170.014 378.143H170.107C170.397 377.42 170.81 376.82 171.347 376.345C171.885 375.87 172.629 375.632 173.579 375.632C174.881 375.632 175.749 376.087 176.183 376.996C176.638 377.905 176.865 379.207 176.865 380.902V392H174.571V381.305C174.571 379.941 174.427 379.001 174.137 378.484C173.869 377.947 173.362 377.678 172.618 377.678C171.957 377.678 171.42 377.895 171.006 378.329C170.593 378.742 170.386 379.383 170.386 380.251V392H168.092V381.305C168.092 379.941 167.948 379.001 167.658 378.484C167.39 377.947 166.894 377.678 166.17 377.678C165.509 377.678 164.961 377.895 164.527 378.329C164.114 378.742 163.907 379.383 163.907 380.251V392H161.613ZM188.106 392.372C186.949 392.372 185.905 392.176 184.975 391.783C184.066 391.39 183.281 390.832 182.619 390.109C181.979 389.365 181.483 388.487 181.131 387.474C180.78 386.441 180.604 385.294 180.604 384.033C180.604 382.752 180.78 381.594 181.131 380.561C181.503 379.528 182.01 378.649 182.65 377.926C183.291 377.182 184.056 376.614 184.944 376.221C185.854 375.828 186.856 375.632 187.951 375.632C189.026 375.632 189.997 375.828 190.865 376.221C191.754 376.614 192.508 377.161 193.128 377.864C193.748 378.546 194.224 379.362 194.554 380.313C194.885 381.264 195.05 382.307 195.05 383.444V384.622H183.208V385.366C183.208 386.069 183.322 386.72 183.549 387.319C183.777 387.918 184.097 388.435 184.51 388.869C184.944 389.303 185.461 389.644 186.06 389.892C186.68 390.119 187.362 390.233 188.106 390.233C189.181 390.233 190.111 389.985 190.896 389.489C191.682 388.993 192.281 388.311 192.694 387.443L194.523 388.683C194.048 389.758 193.252 390.646 192.136 391.349C191.041 392.031 189.698 392.372 188.106 392.372ZM187.951 377.678C187.269 377.678 186.639 377.802 186.06 378.05C185.482 378.298 184.975 378.639 184.541 379.073C184.128 379.507 183.797 380.024 183.549 380.623C183.322 381.202 183.208 381.842 183.208 382.545V382.762H192.384V382.421C192.384 381.718 192.271 381.078 192.043 380.499C191.837 379.92 191.537 379.424 191.144 379.011C190.772 378.577 190.307 378.246 189.749 378.019C189.212 377.792 188.613 377.678 187.951 377.678ZM225.778 392C224.559 392 223.66 391.659 223.081 390.977C222.523 390.295 222.244 389.417 222.244 388.342V378.112H216.912V376.004H220.88C221.417 376.004 221.789 375.901 221.996 375.694C222.223 375.467 222.337 375.084 222.337 374.547V370.362H224.724V376.004H232.009V378.112H224.724V389.892H232.009V392H225.778ZM243.591 392.372C242.475 392.372 241.462 392.176 240.553 391.783C239.664 391.39 238.9 390.832 238.259 390.109C237.639 389.365 237.164 388.487 236.833 387.474C236.502 386.441 236.337 385.283 236.337 384.002C236.337 382.741 236.502 381.594 236.833 380.561C237.164 379.528 237.639 378.649 238.259 377.926C238.9 377.182 239.664 376.614 240.553 376.221C241.462 375.828 242.475 375.632 243.591 375.632C244.707 375.632 245.709 375.828 246.598 376.221C247.507 376.614 248.272 377.182 248.892 377.926C249.533 378.649 250.018 379.528 250.349 380.561C250.68 381.594 250.845 382.741 250.845 384.002C250.845 385.283 250.68 386.441 250.349 387.474C250.018 388.487 249.533 389.365 248.892 390.109C248.272 390.832 247.507 391.39 246.598 391.783C245.709 392.176 244.707 392.372 243.591 392.372ZM243.591 390.233C244.976 390.233 246.092 389.82 246.939 388.993C247.786 388.166 248.21 386.885 248.21 385.149V382.855C248.21 381.119 247.786 379.838 246.939 379.011C246.092 378.184 244.976 377.771 243.591 377.771C242.206 377.771 241.09 378.184 240.243 379.011C239.396 379.838 238.972 381.119 238.972 382.855V385.149C238.972 386.885 239.396 388.166 240.243 388.993C241.09 389.82 242.206 390.233 243.591 390.233ZM76.052 432.372C74.192 432.372 72.6007 432.052 71.278 431.411C69.976 430.77 68.9117 429.923 68.085 428.869L70.534 426.327C71.34 427.257 72.208 427.949 73.138 428.404C74.0887 428.838 75.1013 429.055 76.176 429.055C77.416 429.055 78.3667 428.776 79.028 428.218C79.6893 427.66 80.02 426.854 80.02 425.8C80.02 424.932 79.772 424.281 79.276 423.847C78.78 423.392 77.943 423.072 76.765 422.886L74.471 422.514C72.4663 422.163 71.0403 421.439 70.193 420.344C69.3457 419.228 68.922 417.916 68.922 416.407C68.922 414.34 69.5937 412.759 70.937 411.664C72.2803 410.548 74.1403 409.99 76.517 409.99C78.2117 409.99 79.6687 410.259 80.888 410.796C82.128 411.333 83.12 412.067 83.864 412.997L81.477 415.539C80.8983 414.857 80.206 414.32 79.4 413.927C78.594 413.514 77.6433 413.307 76.548 413.307C74.192 413.307 73.014 414.278 73.014 416.221C73.014 417.048 73.262 417.678 73.758 418.112C74.254 418.546 75.1013 418.866 76.3 419.073L78.563 419.476C80.4437 419.827 81.8387 420.52 82.748 421.553C83.6573 422.586 84.112 423.909 84.112 425.521C84.112 426.534 83.9363 427.464 83.585 428.311C83.2337 429.138 82.717 429.861 82.035 430.481C81.353 431.08 80.5057 431.545 79.493 431.876C78.501 432.207 77.354 432.372 76.052 432.372ZM87.9129 432V416.004H91.8809V418.825H92.0359C92.3872 417.957 92.9246 417.213 93.6479 416.593C94.3919 415.952 95.4149 415.632 96.7169 415.632C98.2876 415.632 99.5586 416.159 100.53 417.213C101.522 418.246 102.018 419.734 102.018 421.677V432H98.0499V422.235C98.0499 419.92 97.0476 418.763 95.0429 418.763C94.6296 418.763 94.2369 418.815 93.8649 418.918C93.4929 419.021 93.1519 419.187 92.8419 419.414C92.5526 419.621 92.3149 419.879 92.1289 420.189C91.9636 420.499 91.8809 420.871 91.8809 421.305V432H87.9129ZM114.468 413.524C113.538 413.524 112.876 413.328 112.484 412.935C112.112 412.542 111.926 412.067 111.926 411.509V410.765C111.926 410.207 112.112 409.732 112.484 409.339C112.876 408.946 113.538 408.75 114.468 408.75C115.398 408.75 116.049 408.946 116.421 409.339C116.813 409.732 117.01 410.207 117.01 410.765V411.509C117.01 412.067 116.813 412.542 116.421 412.935C116.049 413.328 115.398 413.524 114.468 413.524ZM107.214 428.869H112.484V419.135H107.214V416.004H116.452V428.869H121.35V432H107.214V428.869ZM124.903 416.004H128.871V418.825H129.088C129.522 417.854 130.111 417.079 130.855 416.5C131.619 415.921 132.622 415.632 133.862 415.632C134.771 415.632 135.598 415.808 136.342 416.159C137.106 416.49 137.757 417.006 138.295 417.709C138.832 418.391 139.245 419.259 139.535 420.313C139.824 421.367 139.969 422.597 139.969 424.002C139.969 425.407 139.824 426.637 139.535 427.691C139.245 428.745 138.832 429.623 138.295 430.326C137.757 431.008 137.106 431.525 136.342 431.876C135.598 432.207 134.771 432.372 133.862 432.372C132.622 432.372 131.619 432.083 130.855 431.504C130.111 430.925 129.522 430.15 129.088 429.179H128.871V438.2H124.903V416.004ZM132.188 429.21C133.345 429.21 134.234 428.859 134.854 428.156C135.494 427.453 135.815 426.492 135.815 425.273V422.731C135.815 421.512 135.494 420.551 134.854 419.848C134.234 419.145 133.345 418.794 132.188 418.794C131.278 418.794 130.493 419.021 129.832 419.476C129.191 419.91 128.871 420.582 128.871 421.491V426.513C128.871 427.422 129.191 428.104 129.832 428.559C130.493 428.993 131.278 429.21 132.188 429.21ZM149.939 422.514L147.676 425.49V432H143.615V410.362H147.676V420.096H147.862L150.373 416.5L154.93 410.362H159.518L152.729 419.476L159.828 432H155.24L149.939 422.514ZM169.611 432.372C168.33 432.372 167.193 432.176 166.201 431.783C165.209 431.39 164.372 430.832 163.69 430.109C163.029 429.386 162.523 428.518 162.171 427.505C161.82 426.472 161.644 425.314 161.644 424.033C161.644 422.731 161.82 421.563 162.171 420.53C162.543 419.497 163.06 418.618 163.721 417.895C164.383 417.172 165.178 416.614 166.108 416.221C167.059 415.828 168.123 415.632 169.301 415.632C170.459 415.632 171.502 415.828 172.432 416.221C173.362 416.593 174.148 417.13 174.788 417.833C175.45 418.536 175.956 419.383 176.307 420.375C176.659 421.367 176.834 422.462 176.834 423.661V424.963H165.612V425.366C165.612 426.523 165.974 427.464 166.697 428.187C167.421 428.89 168.433 429.241 169.735 429.241C170.727 429.241 171.575 429.045 172.277 428.652C173.001 428.239 173.6 427.701 174.075 427.04L176.338 429.303C175.76 430.15 174.912 430.874 173.796 431.473C172.701 432.072 171.306 432.372 169.611 432.372ZM169.332 418.546C168.216 418.546 167.317 418.897 166.635 419.6C165.953 420.303 165.612 421.233 165.612 422.39V422.607H172.866V422.328C172.866 421.171 172.546 420.251 171.905 419.569C171.285 418.887 170.428 418.546 169.332 418.546ZM192.198 416.004H196.228L188.571 434.852C188.137 435.947 187.559 436.774 186.835 437.332C186.112 437.911 185.089 438.2 183.766 438.2H180.852V435.069H184.665L185.874 431.845L179.426 416.004H183.642L186.091 422.7L187.796 427.784H188.013L189.718 422.7L192.198 416.004Z" fill="black"/>
<path d="M75.172 461.268L75.268 458.928H75.16L73.6 463.236L72.04 458.928H71.932L72.028 461.268V465H70.468V456.624H72.592L73.624 459.444H73.72L74.752 456.624H76.732V465H75.172V461.268ZM83.0393 465C82.6713 465 82.3753 464.908 82.1513 464.724C81.9273 464.532 81.7953 464.26 81.7553 463.908H81.6953C81.5833 464.316 81.3593 464.624 81.0233 464.832C80.6953 465.04 80.2913 465.144 79.8113 465.144C79.2113 465.144 78.7273 464.984 78.3593 464.664C77.9993 464.336 77.8193 463.88 77.8193 463.296C77.8193 462.648 78.0553 462.168 78.5273 461.856C78.9993 461.544 79.6913 461.388 80.6033 461.388H81.5993V461.076C81.5993 460.708 81.5113 460.432 81.3353 460.248C81.1673 460.056 80.8793 459.96 80.4713 459.96C80.0953 459.96 79.7913 460.032 79.5593 460.176C79.3273 460.32 79.1273 460.508 78.9593 460.74L77.9873 459.876C78.1953 459.524 78.5193 459.236 78.9593 459.012C79.4073 458.78 79.9793 458.664 80.6753 458.664C81.5233 458.664 82.1833 458.86 82.6553 459.252C83.1353 459.636 83.3753 460.22 83.3753 461.004V463.716H84.0593V465H83.0393ZM80.4833 463.98C80.7953 463.98 81.0593 463.904 81.2753 463.752C81.4913 463.6 81.5993 463.38 81.5993 463.092V462.348H80.6513C79.9233 462.348 79.5593 462.592 79.5593 463.08V463.32C79.5593 463.536 79.6433 463.7 79.8113 463.812C79.9793 463.924 80.2033 463.98 80.4833 463.98ZM85.1706 465V458.808H86.9466V459.936H87.0186C87.0906 459.76 87.1786 459.596 87.2826 459.444C87.3866 459.292 87.5106 459.16 87.6546 459.048C87.8066 458.928 87.9786 458.836 88.1706 458.772C88.3706 458.7 88.5946 458.664 88.8426 458.664C89.1386 458.664 89.4106 458.716 89.6586 458.82C89.9066 458.916 90.1186 459.064 90.2946 459.264C90.4706 459.464 90.6066 459.708 90.7026 459.996C90.8066 460.284 90.8586 460.616 90.8586 460.992V465H89.0826V461.232C89.0826 460.432 88.7346 460.032 88.0386 460.032C87.9026 460.032 87.7666 460.052 87.6306 460.092C87.5026 460.124 87.3866 460.18 87.2826 460.26C87.1786 460.332 87.0946 460.424 87.0306 460.536C86.9746 460.648 86.9466 460.78 86.9466 460.932V465H85.1706ZM97.4299 465C97.0619 465 96.7659 464.908 96.5419 464.724C96.3179 464.532 96.1859 464.26 96.1459 463.908H96.0859C95.9739 464.316 95.7499 464.624 95.4139 464.832C95.0859 465.04 94.6819 465.144 94.2019 465.144C93.6019 465.144 93.1179 464.984 92.7499 464.664C92.3899 464.336 92.2099 463.88 92.2099 463.296C92.2099 462.648 92.4459 462.168 92.9179 461.856C93.3899 461.544 94.0819 461.388 94.9939 461.388H95.9899V461.076C95.9899 460.708 95.9019 460.432 95.7259 460.248C95.5579 460.056 95.2699 459.96 94.8619 459.96C94.4859 459.96 94.1819 460.032 93.9499 460.176C93.7179 460.32 93.5179 460.508 93.3499 460.74L92.3779 459.876C92.5859 459.524 92.9099 459.236 93.3499 459.012C93.7979 458.78 94.3699 458.664 95.0659 458.664C95.9139 458.664 96.5739 458.86 97.0459 459.252C97.5259 459.636 97.7659 460.22 97.7659 461.004V463.716H98.4499V465H97.4299ZM94.8739 463.98C95.1859 463.98 95.4499 463.904 95.6659 463.752C95.8819 463.6 95.9899 463.38 95.9899 463.092V462.348H95.0419C94.3139 462.348 93.9499 462.592 93.9499 463.08V463.32C93.9499 463.536 94.0339 463.7 94.2019 463.812C94.3699 463.924 94.5939 463.98 94.8739 463.98ZM105.777 465.624C105.777 466.28 105.501 466.764 104.949 467.076C104.397 467.388 103.529 467.544 102.345 467.544C101.753 467.544 101.265 467.508 100.881 467.436C100.497 467.372 100.189 467.276 99.9573 467.148C99.7333 467.02 99.5733 466.868 99.4773 466.692C99.3893 466.516 99.3453 466.324 99.3453 466.116C99.3453 465.764 99.4493 465.496 99.6573 465.312C99.8653 465.136 100.157 465 100.533 464.904V464.832C100.269 464.752 100.057 464.64 99.8973 464.496C99.7453 464.344 99.6693 464.132 99.6693 463.86C99.6693 463.556 99.7693 463.332 99.9693 463.188C100.177 463.044 100.449 462.932 100.785 462.852V462.78C100.417 462.604 100.129 462.356 99.9213 462.036C99.7213 461.716 99.6213 461.328 99.6213 460.872C99.6213 460.512 99.6853 460.196 99.8133 459.924C99.9413 459.644 100.121 459.412 100.353 459.228C100.593 459.044 100.877 458.904 101.205 458.808C101.533 458.712 101.901 458.664 102.309 458.664C102.701 458.664 103.065 458.708 103.401 458.796V458.46C103.401 458.22 103.485 458.02 103.653 457.86C103.821 457.7 104.053 457.62 104.349 457.62H105.441V458.916H103.953V459.024C104.289 459.2 104.549 459.444 104.733 459.756C104.925 460.06 105.021 460.432 105.021 460.872C105.021 461.232 104.957 461.548 104.829 461.82C104.701 462.092 104.517 462.324 104.277 462.516C104.037 462.7 103.749 462.84 103.413 462.936C103.085 463.032 102.717 463.08 102.309 463.08C102.125 463.08 101.949 463.072 101.781 463.056C101.613 463.032 101.453 463 101.301 462.96C101.213 463.008 101.137 463.068 101.073 463.14C101.017 463.212 100.989 463.304 100.989 463.416C100.989 463.512 101.013 463.588 101.061 463.644C101.109 463.7 101.173 463.744 101.253 463.776C101.341 463.8 101.441 463.816 101.553 463.824C101.665 463.832 101.781 463.836 101.901 463.836H103.317C103.757 463.836 104.133 463.88 104.445 463.968C104.757 464.056 105.013 464.18 105.213 464.34C105.413 464.5 105.557 464.688 105.645 464.904C105.733 465.12 105.777 465.36 105.777 465.624ZM104.097 465.756C104.097 465.596 104.033 465.468 103.905 465.372C103.777 465.284 103.533 465.24 103.173 465.24H101.049C100.889 465.376 100.809 465.544 100.809 465.744C100.809 465.936 100.889 466.092 101.049 466.212C101.217 466.34 101.497 466.404 101.889 466.404H102.933C103.341 466.404 103.637 466.348 103.821 466.236C104.005 466.124 104.097 465.964 104.097 465.756ZM102.309 461.952C102.669 461.952 102.929 461.864 103.089 461.688C103.257 461.512 103.341 461.288 103.341 461.016V460.728C103.341 460.456 103.257 460.232 103.089 460.056C102.929 459.88 102.669 459.792 102.309 459.792C101.957 459.792 101.701 459.88 101.541 460.056C101.381 460.232 101.301 460.456 101.301 460.728V461.016C101.301 461.288 101.381 461.512 101.541 461.688C101.701 461.864 101.957 461.952 102.309 461.952ZM109.745 465.144C108.705 465.144 107.917 464.856 107.381 464.28C106.845 463.704 106.577 462.92 106.577 461.928C106.577 461.424 106.645 460.972 106.781 460.572C106.925 460.164 107.125 459.82 107.381 459.54C107.645 459.252 107.961 459.036 108.329 458.892C108.705 458.74 109.125 458.664 109.589 458.664C110.053 458.664 110.469 458.74 110.837 458.892C111.205 459.036 111.517 459.244 111.773 459.516C112.029 459.788 112.225 460.12 112.361 460.512C112.505 460.896 112.577 461.328 112.577 461.808V462.336H108.341V462.444C108.341 462.844 108.465 463.168 108.713 463.416C108.961 463.656 109.325 463.776 109.805 463.776C110.173 463.776 110.489 463.708 110.753 463.572C111.017 463.428 111.245 463.24 111.437 463.008L112.397 464.052C112.157 464.348 111.821 464.604 111.389 464.82C110.957 465.036 110.409 465.144 109.745 465.144ZM109.601 459.936C109.217 459.936 108.909 460.056 108.677 460.296C108.453 460.528 108.341 460.844 108.341 461.244V461.34H110.837V461.244C110.837 460.836 110.725 460.516 110.501 460.284C110.285 460.052 109.985 459.936 109.601 459.936ZM123.979 465.144C123.307 465.144 122.727 465.036 122.239 464.82C121.759 464.604 121.371 464.316 121.075 463.956L121.879 463.236C122.151 463.532 122.455 463.76 122.791 463.92C123.135 464.072 123.539 464.148 124.003 464.148C124.427 464.148 124.767 464.076 125.023 463.932C125.287 463.788 125.419 463.564 125.419 463.26C125.419 463.132 125.395 463.024 125.347 462.936C125.299 462.848 125.231 462.776 125.143 462.72C125.055 462.664 124.951 462.62 124.831 462.588C124.719 462.556 124.599 462.532 124.471 462.516L123.487 462.36C123.247 462.328 123.003 462.276 122.755 462.204C122.507 462.132 122.283 462.032 122.083 461.904C121.891 461.768 121.731 461.596 121.603 461.388C121.483 461.18 121.423 460.916 121.423 460.596C121.423 459.964 121.663 459.484 122.143 459.156C122.631 458.828 123.271 458.664 124.063 458.664C124.639 458.664 125.135 458.752 125.551 458.928C125.975 459.096 126.327 459.332 126.607 459.636L125.875 460.404C125.715 460.22 125.487 460.052 125.191 459.9C124.895 459.74 124.503 459.66 124.015 459.66C123.143 459.66 122.707 459.936 122.707 460.488C122.707 460.752 122.799 460.936 122.983 461.04C123.175 461.136 123.399 461.2 123.655 461.232L124.639 461.388C124.887 461.428 125.131 461.48 125.371 461.544C125.619 461.608 125.839 461.708 126.031 461.844C126.231 461.972 126.391 462.14 126.511 462.348C126.639 462.556 126.703 462.82 126.703 463.14C126.703 463.764 126.459 464.256 125.971 464.616C125.491 464.968 124.827 465.144 123.979 465.144ZM128.571 465V458.808H129.879V459.864H129.939C130.003 459.704 130.083 459.552 130.179 459.408C130.283 459.256 130.407 459.128 130.551 459.024C130.695 458.912 130.863 458.824 131.055 458.76C131.247 458.696 131.471 458.664 131.727 458.664C132.351 458.664 132.855 458.868 133.239 459.276C133.623 459.684 133.815 460.264 133.815 461.016V465H132.507V461.208C132.507 460.224 132.079 459.732 131.223 459.732C131.055 459.732 130.891 459.756 130.73 459.804C130.571 459.844 130.427 459.908 130.299 459.996C130.171 460.084 130.067 460.196 129.987 460.332C129.915 460.468 129.879 460.624 129.879 460.8V465H128.571ZM138.742 457.68C138.406 457.68 138.17 457.612 138.034 457.476C137.906 457.34 137.842 457.172 137.842 456.972V456.72C137.842 456.52 137.906 456.352 138.034 456.216C138.17 456.08 138.402 456.012 138.73 456.012C139.066 456.012 139.298 456.08 139.426 456.216C139.562 456.352 139.63 456.52 139.63 456.72V456.972C139.63 457.172 139.562 457.34 139.426 457.476C139.298 457.612 139.07 457.68 138.742 457.68ZM135.97 463.944H138.082V459.864H135.97V458.808H139.39V463.944H141.37V465H135.97V463.944ZM142.901 458.808H144.209V459.864H144.281C144.465 459.488 144.709 459.196 145.013 458.988C145.317 458.772 145.697 458.664 146.153 458.664C146.881 458.664 147.461 458.936 147.893 459.48C148.325 460.024 148.541 460.832 148.541 461.904C148.541 462.976 148.325 463.784 147.893 464.328C147.461 464.872 146.881 465.144 146.153 465.144C145.697 465.144 145.317 465.04 145.013 464.832C144.709 464.616 144.465 464.32 144.281 463.944H144.209V467.4H142.901V458.808ZM145.613 464.076C146.109 464.076 146.489 463.924 146.753 463.62C147.025 463.316 147.161 462.912 147.161 462.408V461.4C147.161 460.896 147.025 460.492 146.753 460.188C146.489 459.884 146.109 459.732 145.613 459.732C145.421 459.732 145.241 459.756 145.073 459.804C144.905 459.852 144.757 459.924 144.629 460.02C144.501 460.116 144.397 460.236 144.317 460.38C144.245 460.516 144.209 460.68 144.209 460.872V462.936C144.209 463.128 144.245 463.296 144.317 463.44C144.397 463.576 144.501 463.692 144.629 463.788C144.757 463.884 144.905 463.956 145.073 464.004C145.241 464.052 145.421 464.076 145.613 464.076ZM150.096 458.808H151.404V459.864H151.476C151.66 459.488 151.904 459.196 152.208 458.988C152.512 458.772 152.892 458.664 153.348 458.664C154.076 458.664 154.656 458.936 155.088 459.48C155.52 460.024 155.736 460.832 155.736 461.904C155.736 462.976 155.52 463.784 155.088 464.328C154.656 464.872 154.076 465.144 153.348 465.144C152.892 465.144 152.512 465.04 152.208 464.832C151.904 464.616 151.66 464.32 151.476 463.944H151.404V467.4H150.096V458.808ZM152.808 464.076C153.304 464.076 153.684 463.924 153.948 463.62C154.22 463.316 154.356 462.912 154.356 462.408V461.4C154.356 460.896 154.22 460.492 153.948 460.188C153.684 459.884 153.304 459.732 152.808 459.732C152.616 459.732 152.436 459.756 152.268 459.804C152.1 459.852 151.952 459.924 151.824 460.02C151.696 460.116 151.592 460.236 151.512 460.38C151.44 460.516 151.404 460.68 151.404 460.872V462.936C151.404 463.128 151.44 463.296 151.512 463.44C151.592 463.576 151.696 463.692 151.824 463.788C151.952 463.884 152.1 463.956 152.268 464.004C152.436 464.052 152.616 464.076 152.808 464.076ZM160.076 465.144C159.604 465.144 159.18 465.068 158.804 464.916C158.428 464.764 158.112 464.548 157.856 464.268C157.6 463.988 157.404 463.652 157.268 463.26C157.132 462.86 157.064 462.412 157.064 461.916C157.064 461.42 157.132 460.972 157.268 460.572C157.412 460.172 157.608 459.832 157.856 459.552C158.112 459.264 158.42 459.044 158.78 458.892C159.14 458.74 159.54 458.664 159.98 458.664C160.412 458.664 160.804 458.74 161.156 458.892C161.508 459.036 161.808 459.244 162.056 459.516C162.304 459.788 162.492 460.112 162.62 460.488C162.756 460.864 162.824 461.28 162.824 461.736V462.228H158.384V462.432C158.384 462.92 158.536 463.32 158.84 463.632C159.144 463.936 159.564 464.088 160.1 464.088C160.5 464.088 160.84 464.004 161.12 463.836C161.408 463.66 161.64 463.428 161.816 463.14L162.632 463.86C162.424 464.22 162.104 464.524 161.672 464.772C161.248 465.02 160.716 465.144 160.076 465.144ZM159.98 459.66C159.748 459.66 159.532 459.7 159.332 459.78C159.14 459.86 158.972 459.976 158.828 460.128C158.692 460.272 158.584 460.444 158.504 460.644C158.424 460.844 158.384 461.064 158.384 461.304V461.388H161.492V461.268C161.492 460.78 161.352 460.392 161.072 460.104C160.8 459.808 160.436 459.66 159.98 459.66ZM167.511 465C166.967 465 166.567 464.856 166.311 464.568C166.055 464.272 165.927 463.892 165.927 463.428V459.864H164.019V458.808H165.375C165.607 458.808 165.771 458.764 165.867 458.676C165.963 458.58 166.011 458.412 166.011 458.172V456.624H167.235V458.808H169.875V459.864H167.235V463.944H169.875V465H167.511ZM174.346 465.144C173.674 465.144 173.094 465.036 172.606 464.82C172.126 464.604 171.738 464.316 171.442 463.956L172.246 463.236C172.518 463.532 172.822 463.76 173.158 463.92C173.502 464.072 173.906 464.148 174.37 464.148C174.794 464.148 175.134 464.076 175.39 463.932C175.654 463.788 175.786 463.564 175.786 463.26C175.786 463.132 175.762 463.024 175.714 462.936C175.666 462.848 175.598 462.776 175.51 462.72C175.422 462.664 175.318 462.62 175.198 462.588C175.086 462.556 174.966 462.532 174.838 462.516L173.854 462.36C173.614 462.328 173.37 462.276 173.122 462.204C172.874 462.132 172.65 462.032 172.45 461.904C172.258 461.768 172.098 461.596 171.97 461.388C171.85 461.18 171.79 460.916 171.79 460.596C171.79 459.964 172.03 459.484 172.51 459.156C172.998 458.828 173.638 458.664 174.43 458.664C175.006 458.664 175.502 458.752 175.918 458.928C176.342 459.096 176.694 459.332 176.974 459.636L176.242 460.404C176.082 460.22 175.854 460.052 175.558 459.9C175.262 459.74 174.87 459.66 174.382 459.66C173.51 459.66 173.074 459.936 173.074 460.488C173.074 460.752 173.166 460.936 173.35 461.04C173.542 461.136 173.766 461.2 174.022 461.232L175.006 461.388C175.254 461.428 175.498 461.48 175.738 461.544C175.986 461.608 176.206 461.708 176.398 461.844C176.598 461.972 176.758 462.14 176.878 462.348C177.006 462.556 177.07 462.82 177.07 463.14C177.07 463.764 176.826 464.256 176.338 464.616C175.858 464.968 175.194 465.144 174.346 465.144ZM188.725 465.144C188.269 465.144 187.857 465.068 187.489 464.916C187.129 464.764 186.821 464.548 186.565 464.268C186.317 463.988 186.125 463.648 185.989 463.248C185.853 462.848 185.785 462.4 185.785 461.904C185.785 461.408 185.853 460.96 185.989 460.56C186.125 460.16 186.317 459.82 186.565 459.54C186.821 459.26 187.129 459.044 187.489 458.892C187.857 458.74 188.269 458.664 188.725 458.664C189.181 458.664 189.589 458.74 189.949 458.892C190.317 459.044 190.625 459.26 190.873 459.54C191.129 459.82 191.325 460.16 191.461 460.56C191.597 460.96 191.665 461.408 191.665 461.904C191.665 462.4 191.597 462.848 191.461 463.248C191.325 463.648 191.129 463.988 190.873 464.268C190.625 464.548 190.317 464.764 189.949 464.916C189.589 465.068 189.181 465.144 188.725 465.144ZM188.725 464.112C189.205 464.112 189.585 463.968 189.865 463.68C190.153 463.384 190.297 462.948 190.297 462.372V461.436C190.297 460.86 190.153 460.428 189.865 460.14C189.585 459.844 189.205 459.696 188.725 459.696C188.245 459.696 187.861 459.844 187.573 460.14C187.293 460.428 187.153 460.86 187.153 461.436V462.372C187.153 462.948 187.293 463.384 187.573 463.68C187.861 463.968 188.245 464.112 188.725 464.112ZM193.256 463.944H195.236V459.864H193.136V458.808H195.236V457.692C195.236 457.228 195.364 456.852 195.62 456.564C195.876 456.268 196.276 456.12 196.82 456.12H198.908V457.176H196.544V458.808H198.908V459.864H196.544V463.944H198.632V465H193.256V463.944ZM210.791 465C210.151 465 209.675 464.832 209.363 464.496C209.051 464.16 208.895 463.732 208.895 463.212V460.188H207.215V458.808H208.307C208.571 458.808 208.759 458.756 208.871 458.652C208.983 458.548 209.039 458.356 209.039 458.076V456.624H210.671V458.808H213.083V460.188H210.671V463.62H213.083V465H210.791ZM217.674 465.144C216.634 465.144 215.846 464.856 215.31 464.28C214.774 463.704 214.506 462.92 214.506 461.928C214.506 461.424 214.574 460.972 214.71 460.572C214.854 460.164 215.054 459.82 215.31 459.54C215.574 459.252 215.89 459.036 216.258 458.892C216.634 458.74 217.054 458.664 217.518 458.664C217.982 458.664 218.398 458.74 218.766 458.892C219.134 459.036 219.446 459.244 219.702 459.516C219.958 459.788 220.154 460.12 220.29 460.512C220.434 460.896 220.506 461.328 220.506 461.808V462.336H216.27V462.444C216.27 462.844 216.394 463.168 216.642 463.416C216.89 463.656 217.254 463.776 217.734 463.776C218.102 463.776 218.418 463.708 218.682 463.572C218.946 463.428 219.174 463.24 219.366 463.008L220.326 464.052C220.086 464.348 219.75 464.604 219.318 464.82C218.886 465.036 218.338 465.144 217.674 465.144ZM217.53 459.936C217.146 459.936 216.838 460.056 216.606 460.296C216.382 460.528 216.27 460.844 216.27 461.244V461.34H218.766V461.244C218.766 460.836 218.654 460.516 218.43 460.284C218.214 460.052 217.914 459.936 217.53 459.936ZM221.378 465L223.694 461.856L221.534 458.808H223.562L224.222 459.804L224.726 460.608H224.822L225.338 459.804L226.01 458.808H227.87L225.71 461.76L228.026 465H225.986L225.206 463.836L224.666 463.008H224.57L224.042 463.836L223.25 465H221.378ZM232.377 465C231.737 465 231.261 464.832 230.949 464.496C230.637 464.16 230.481 463.732 230.481 463.212V460.188H228.801V458.808H229.893C230.157 458.808 230.345 458.756 230.457 458.652C230.569 458.548 230.625 458.356 230.625 458.076V456.624H232.257V458.808H234.669V460.188H232.257V463.62H234.669V465H232.377ZM248.592 465C248.216 465 247.932 464.904 247.74 464.712C247.556 464.52 247.444 464.268 247.404 463.956H247.344C247.224 464.332 247.004 464.624 246.684 464.832C246.372 465.04 245.972 465.144 245.484 465.144C244.852 465.144 244.348 464.98 243.972 464.652C243.596 464.316 243.408 463.856 243.408 463.272C243.408 462.672 243.628 462.216 244.068 461.904C244.516 461.584 245.2 461.424 246.12 461.424H247.308V460.944C247.308 460.104 246.864 459.684 245.976 459.684C245.576 459.684 245.252 459.764 245.004 459.924C244.756 460.076 244.548 460.28 244.38 460.536L243.6 459.9C243.776 459.564 244.072 459.276 244.488 459.036C244.904 458.788 245.44 458.664 246.096 458.664C246.88 458.664 247.496 458.852 247.944 459.228C248.392 459.604 248.616 460.148 248.616 460.86V463.968H249.396V465H248.592ZM245.855 464.184C246.28 464.184 246.628 464.088 246.9 463.896C247.172 463.704 247.308 463.456 247.308 463.152V462.252H246.144C245.2 462.252 244.728 462.536 244.728 463.104V463.344C244.728 463.624 244.828 463.836 245.028 463.98C245.228 464.116 245.504 464.184 245.855 464.184ZM250.891 465V458.808H252.199V459.864H252.259C252.323 459.704 252.403 459.552 252.499 459.408C252.603 459.256 252.727 459.128 252.871 459.024C253.015 458.912 253.183 458.824 253.375 458.76C253.567 458.696 253.791 458.664 254.047 458.664C254.671 458.664 255.175 458.868 255.559 459.276C255.943 459.684 256.135 460.264 256.135 461.016V465H254.827V461.208C254.827 460.224 254.399 459.732 253.543 459.732C253.375 459.732 253.211 459.756 253.051 459.804C252.891 459.844 252.747 459.908 252.619 459.996C252.491 460.084 252.387 460.196 252.307 460.332C252.235 460.468 252.199 460.624 252.199 460.8V465H250.891ZM262.022 463.944H261.95C261.766 464.32 261.522 464.616 261.218 464.832C260.914 465.04 260.534 465.144 260.078 465.144C259.35 465.144 258.77 464.872 258.338 464.328C257.906 463.784 257.69 462.976 257.69 461.904C257.69 460.832 257.906 460.024 258.338 459.48C258.77 458.936 259.35 458.664 260.078 458.664C260.534 458.664 260.914 458.772 261.218 458.988C261.522 459.196 261.766 459.488 261.95 459.864H262.022V456.12H263.33V465H262.022V463.944ZM260.618 464.076C260.81 464.076 260.99 464.052 261.158 464.004C261.326 463.956 261.474 463.884 261.602 463.788C261.73 463.692 261.83 463.576 261.902 463.44C261.982 463.296 262.022 463.128 262.022 462.936V460.872C262.022 460.68 261.982 460.516 261.902 460.38C261.83 460.236 261.73 460.116 261.602 460.02C261.474 459.924 261.326 459.852 261.158 459.804C260.99 459.756 260.81 459.732 260.618 459.732C260.122 459.732 259.738 459.884 259.466 460.188C259.202 460.492 259.07 460.896 259.07 461.4V462.408C259.07 462.912 259.202 463.316 259.466 463.62C259.738 463.924 260.122 464.076 260.618 464.076ZM273.929 456.624V461.928C273.929 462.192 273.937 462.436 273.953 462.66C273.977 462.876 274.025 463.06 274.097 463.212C274.177 463.364 274.293 463.484 274.445 463.572C274.597 463.652 274.805 463.692 275.069 463.692C275.333 463.692 275.541 463.652 275.693 463.572C275.845 463.484 275.957 463.364 276.029 463.212C276.109 463.06 276.157 462.876 276.173 462.66C276.197 462.436 276.209 462.192 276.209 461.928V456.624H278.009V461.688C278.009 462.264 277.969 462.768 277.889 463.2C277.817 463.632 277.673 463.992 277.457 464.28C277.241 464.568 276.941 464.784 276.557 464.928C276.173 465.072 275.677 465.144 275.069 465.144C274.461 465.144 273.965 465.072 273.581 464.928C273.197 464.784 272.897 464.568 272.681 464.28C272.465 463.992 272.317 463.632 272.237 463.2C272.165 462.768 272.129 462.264 272.129 461.688V456.624H273.929ZM281.352 465H279.576V456.624H282.816C283.224 456.624 283.588 456.688 283.908 456.816C284.228 456.936 284.496 457.112 284.712 457.344C284.936 457.576 285.104 457.856 285.216 458.184C285.328 458.512 285.384 458.88 285.384 459.288C285.384 459.88 285.256 460.388 285 460.812C284.744 461.236 284.38 461.516 283.908 461.652L285.552 465H283.584L282.18 461.892H281.352V465ZM282.384 460.5C282.808 460.5 283.1 460.42 283.26 460.26C283.428 460.1 283.512 459.836 283.512 459.468V459.108C283.512 458.74 283.428 458.476 283.26 458.316C283.1 458.156 282.808 458.076 282.384 458.076H281.352V460.5H282.384ZM286.963 465V456.624H288.775V463.524H292.375V465H286.963ZM296.583 465.144C295.895 465.144 295.295 465.04 294.783 464.832C294.279 464.624 293.899 464.34 293.643 463.98L294.639 463.056C294.879 463.32 295.159 463.528 295.479 463.68C295.807 463.824 296.179 463.896 296.595 463.896C296.947 463.896 297.223 463.844 297.423 463.74C297.623 463.628 297.723 463.46 297.723 463.236C297.723 463.06 297.655 462.94 297.519 462.876C297.383 462.804 297.195 462.748 296.955 462.708L295.959 462.552C295.679 462.512 295.419 462.452 295.179 462.372C294.939 462.284 294.731 462.168 294.555 462.024C294.379 461.88 294.239 461.704 294.135 461.496C294.031 461.288 293.979 461.036 293.979 460.74C293.979 460.092 294.227 459.584 294.723 459.216C295.219 458.848 295.915 458.664 296.811 458.664C297.419 458.664 297.935 458.748 298.359 458.916C298.791 459.076 299.135 459.308 299.391 459.612L298.503 460.62C298.319 460.42 298.083 460.252 297.795 460.116C297.507 459.98 297.159 459.912 296.751 459.912C296.063 459.912 295.719 460.12 295.719 460.536C295.719 460.72 295.787 460.848 295.923 460.92C296.059 460.984 296.247 461.036 296.487 461.076L297.471 461.232C297.751 461.272 298.011 461.336 298.251 461.424C298.491 461.504 298.699 461.616 298.875 461.76C299.059 461.904 299.203 462.08 299.307 462.288C299.411 462.496 299.463 462.748 299.463 463.044C299.463 463.692 299.211 464.204 298.707 464.58C298.211 464.956 297.503 465.144 296.583 465.144ZM70.936 479.944H72.916V475.864H70.816V474.808H72.916V473.692C72.916 473.228 73.044 472.852 73.3 472.564C73.556 472.268 73.956 472.12 74.5 472.12H76.588V473.176H74.224V474.808H76.588V475.864H74.224V479.944H76.312V481H70.936V479.944ZM80.7953 481.144C80.3393 481.144 79.9273 481.068 79.5593 480.916C79.1993 480.764 78.8913 480.548 78.6353 480.268C78.3873 479.988 78.1953 479.648 78.0593 479.248C77.9233 478.848 77.8553 478.4 77.8553 477.904C77.8553 477.408 77.9233 476.96 78.0593 476.56C78.1953 476.16 78.3873 475.82 78.6353 475.54C78.8913 475.26 79.1993 475.044 79.5593 474.892C79.9273 474.74 80.3393 474.664 80.7953 474.664C81.2513 474.664 81.6593 474.74 82.0193 474.892C82.3873 475.044 82.6953 475.26 82.9433 475.54C83.1993 475.82 83.3953 476.16 83.5313 476.56C83.6673 476.96 83.7353 477.408 83.7353 477.904C83.7353 478.4 83.6673 478.848 83.5313 479.248C83.3953 479.648 83.1993 479.988 82.9433 480.268C82.6953 480.548 82.3873 480.764 82.0193 480.916C81.6593 481.068 81.2513 481.144 80.7953 481.144ZM80.7953 480.112C81.2753 480.112 81.6553 479.968 81.9353 479.68C82.2233 479.384 82.3673 478.948 82.3673 478.372V477.436C82.3673 476.86 82.2233 476.428 81.9353 476.14C81.6553 475.844 81.2753 475.696 80.7953 475.696C80.3153 475.696 79.9313 475.844 79.6433 476.14C79.3633 476.428 79.2233 476.86 79.2233 477.436V478.372C79.2233 478.948 79.3633 479.384 79.6433 479.68C79.9313 479.968 80.3153 480.112 80.7953 480.112ZM85.3026 479.944H86.9466V475.864H85.3026V474.808H88.2546V476.452H88.3266C88.3826 476.236 88.4626 476.028 88.5666 475.828C88.6706 475.628 88.8026 475.456 88.9626 475.312C89.1226 475.16 89.3186 475.04 89.5506 474.952C89.7826 474.856 90.0546 474.808 90.3666 474.808H91.1106V476.056H89.8866C89.4066 476.056 89.0146 476.2 88.7106 476.488C88.4066 476.768 88.2546 477.148 88.2546 477.628V479.944H90.4986V481H85.3026V479.944ZM102.393 481.144C101.721 481.144 101.141 481.036 100.653 480.82C100.173 480.604 99.7853 480.316 99.4893 479.956L100.293 479.236C100.565 479.532 100.869 479.76 101.205 479.92C101.549 480.072 101.953 480.148 102.417 480.148C102.841 480.148 103.181 480.076 103.437 479.932C103.701 479.788 103.833 479.564 103.833 479.26C103.833 479.132 103.809 479.024 103.761 478.936C103.713 478.848 103.645 478.776 103.557 478.72C103.469 478.664 103.365 478.62 103.245 478.588C103.133 478.556 103.013 478.532 102.885 478.516L101.901 478.36C101.661 478.328 101.417 478.276 101.169 478.204C100.921 478.132 100.697 478.032 100.497 477.904C100.305 477.768 100.145 477.596 100.017 477.388C99.8973 477.18 99.8373 476.916 99.8373 476.596C99.8373 475.964 100.077 475.484 100.557 475.156C101.045 474.828 101.685 474.664 102.477 474.664C103.053 474.664 103.549 474.752 103.965 474.928C104.389 475.096 104.741 475.332 105.021 475.636L104.289 476.404C104.129 476.22 103.901 476.052 103.605 475.9C103.309 475.74 102.917 475.66 102.429 475.66C101.557 475.66 101.121 475.936 101.121 476.488C101.121 476.752 101.213 476.936 101.397 477.04C101.589 477.136 101.813 477.2 102.069 477.232L103.053 477.388C103.301 477.428 103.545 477.48 103.785 477.544C104.033 477.608 104.253 477.708 104.445 477.844C104.645 477.972 104.805 478.14 104.925 478.348C105.053 478.556 105.117 478.82 105.117 479.14C105.117 479.764 104.873 480.256 104.385 480.616C103.905 480.968 103.241 481.144 102.393 481.144ZM109.709 481.144C109.237 481.144 108.813 481.068 108.437 480.916C108.061 480.764 107.745 480.548 107.489 480.268C107.233 479.988 107.037 479.652 106.901 479.26C106.765 478.86 106.697 478.412 106.697 477.916C106.697 477.42 106.765 476.972 106.901 476.572C107.045 476.172 107.241 475.832 107.489 475.552C107.745 475.264 108.053 475.044 108.413 474.892C108.773 474.74 109.173 474.664 109.613 474.664C110.045 474.664 110.437 474.74 110.789 474.892C111.141 475.036 111.441 475.244 111.689 475.516C111.937 475.788 112.125 476.112 112.253 476.488C112.389 476.864 112.457 477.28 112.457 477.736V478.228H108.017V478.432C108.017 478.92 108.169 479.32 108.473 479.632C108.777 479.936 109.197 480.088 109.733 480.088C110.133 480.088 110.473 480.004 110.753 479.836C111.041 479.66 111.273 479.428 111.449 479.14L112.265 479.86C112.057 480.22 111.737 480.524 111.305 480.772C110.881 481.02 110.349 481.144 109.709 481.144ZM109.613 475.66C109.381 475.66 109.165 475.7 108.965 475.78C108.773 475.86 108.605 475.976 108.461 476.128C108.325 476.272 108.217 476.444 108.137 476.644C108.057 476.844 108.017 477.064 108.017 477.304V477.388H111.125V477.268C111.125 476.78 110.985 476.392 110.705 476.104C110.433 475.808 110.069 475.66 109.613 475.66ZM119.076 481C118.7 481 118.416 480.904 118.224 480.712C118.04 480.52 117.928 480.268 117.888 479.956H117.828C117.708 480.332 117.488 480.624 117.168 480.832C116.856 481.04 116.456 481.144 115.968 481.144C115.336 481.144 114.832 480.98 114.456 480.652C114.08 480.316 113.892 479.856 113.892 479.272C113.892 478.672 114.112 478.216 114.552 477.904C115 477.584 115.684 477.424 116.604 477.424H117.792V476.944C117.792 476.104 117.348 475.684 116.46 475.684C116.06 475.684 115.736 475.764 115.488 475.924C115.24 476.076 115.032 476.28 114.864 476.536L114.084 475.9C114.26 475.564 114.556 475.276 114.972 475.036C115.388 474.788 115.924 474.664 116.58 474.664C117.364 474.664 117.98 474.852 118.428 475.228C118.876 475.604 119.1 476.148 119.1 476.86V479.968H119.88V481H119.076ZM116.34 480.184C116.764 480.184 117.112 480.088 117.384 479.896C117.656 479.704 117.792 479.456 117.792 479.152V478.252H116.628C115.684 478.252 115.212 478.536 115.212 479.104V479.344C115.212 479.624 115.312 479.836 115.512 479.98C115.712 480.116 115.988 480.184 116.34 480.184ZM120.895 481V474.808H122.011V475.612H122.071C122.167 475.348 122.303 475.124 122.479 474.94C122.663 474.756 122.923 474.664 123.259 474.664C123.587 474.664 123.839 474.756 124.015 474.94C124.199 475.116 124.315 475.36 124.363 475.672H124.411C124.523 475.392 124.679 475.156 124.879 474.964C125.079 474.764 125.367 474.664 125.743 474.664C126.223 474.664 126.555 474.832 126.739 475.168C126.931 475.504 127.027 475.996 127.027 476.644V481H125.911V476.812C125.911 476.38 125.859 476.084 125.755 475.924C125.651 475.756 125.483 475.672 125.251 475.672C125.043 475.672 124.867 475.744 124.723 475.888C124.587 476.024 124.519 476.232 124.519 476.512V481H123.403V476.812C123.403 476.38 123.351 476.084 123.247 475.924C123.151 475.756 122.987 475.672 122.755 475.672C122.539 475.672 122.359 475.744 122.215 475.888C122.079 476.024 122.011 476.232 122.011 476.512V481H120.895ZM128.463 479.944H130.515V473.176H128.463V472.12H131.823V479.944H133.875V481H128.463V479.944ZM138.49 481.144C138.018 481.144 137.594 481.068 137.218 480.916C136.842 480.764 136.526 480.548 136.27 480.268C136.014 479.988 135.818 479.652 135.682 479.26C135.546 478.86 135.478 478.412 135.478 477.916C135.478 477.42 135.546 476.972 135.682 476.572C135.826 476.172 136.022 475.832 136.27 475.552C136.526 475.264 136.834 475.044 137.194 474.892C137.554 474.74 137.954 474.664 138.394 474.664C138.826 474.664 139.218 474.74 139.57 474.892C139.922 475.036 140.222 475.244 140.47 475.516C140.718 475.788 140.906 476.112 141.034 476.488C141.17 476.864 141.238 477.28 141.238 477.736V478.228H136.798V478.432C136.798 478.92 136.95 479.32 137.254 479.632C137.558 479.936 137.978 480.088 138.514 480.088C138.914 480.088 139.254 480.004 139.534 479.836C139.822 479.66 140.054 479.428 140.23 479.14L141.046 479.86C140.838 480.22 140.518 480.524 140.086 480.772C139.662 481.02 139.13 481.144 138.49 481.144ZM138.394 475.66C138.162 475.66 137.946 475.7 137.746 475.78C137.554 475.86 137.386 475.976 137.242 476.128C137.106 476.272 136.998 476.444 136.918 476.644C136.838 476.844 136.798 477.064 136.798 477.304V477.388H139.906V477.268C139.906 476.78 139.766 476.392 139.486 476.104C139.214 475.808 138.85 475.66 138.394 475.66ZM145.565 481.144C144.893 481.144 144.313 481.036 143.825 480.82C143.345 480.604 142.957 480.316 142.661 479.956L143.465 479.236C143.737 479.532 144.041 479.76 144.377 479.92C144.721 480.072 145.125 480.148 145.589 480.148C146.013 480.148 146.353 480.076 146.609 479.932C146.873 479.788 147.005 479.564 147.005 479.26C147.005 479.132 146.981 479.024 146.933 478.936C146.885 478.848 146.817 478.776 146.729 478.72C146.641 478.664 146.537 478.62 146.417 478.588C146.305 478.556 146.185 478.532 146.057 478.516L145.073 478.36C144.833 478.328 144.589 478.276 144.341 478.204C144.093 478.132 143.869 478.032 143.669 477.904C143.477 477.768 143.317 477.596 143.189 477.388C143.069 477.18 143.009 476.916 143.009 476.596C143.009 475.964 143.249 475.484 143.729 475.156C144.217 474.828 144.857 474.664 145.649 474.664C146.225 474.664 146.721 474.752 147.137 474.928C147.561 475.096 147.913 475.332 148.193 475.636L147.461 476.404C147.301 476.22 147.073 476.052 146.777 475.9C146.481 475.74 146.089 475.66 145.601 475.66C144.729 475.66 144.293 475.936 144.293 476.488C144.293 476.752 144.385 476.936 144.569 477.04C144.761 477.136 144.985 477.2 145.241 477.232L146.225 477.388C146.473 477.428 146.717 477.48 146.957 477.544C147.205 477.608 147.425 477.708 147.617 477.844C147.817 477.972 147.977 478.14 148.097 478.348C148.225 478.556 148.289 478.82 148.289 479.14C148.289 479.764 148.045 480.256 147.557 480.616C147.077 480.968 146.413 481.144 145.565 481.144ZM152.76 481.144C152.088 481.144 151.508 481.036 151.02 480.82C150.54 480.604 150.152 480.316 149.856 479.956L150.66 479.236C150.932 479.532 151.236 479.76 151.572 479.92C151.916 480.072 152.32 480.148 152.784 480.148C153.208 480.148 153.548 480.076 153.804 479.932C154.068 479.788 154.2 479.564 154.2 479.26C154.2 479.132 154.176 479.024 154.128 478.936C154.08 478.848 154.012 478.776 153.924 478.72C153.836 478.664 153.732 478.62 153.612 478.588C153.5 478.556 153.38 478.532 153.252 478.516L152.268 478.36C152.028 478.328 151.784 478.276 151.536 478.204C151.288 478.132 151.064 478.032 150.864 477.904C150.672 477.768 150.512 477.596 150.384 477.388C150.264 477.18 150.204 476.916 150.204 476.596C150.204 475.964 150.444 475.484 150.924 475.156C151.412 474.828 152.052 474.664 152.844 474.664C153.42 474.664 153.916 474.752 154.332 474.928C154.756 475.096 155.108 475.332 155.388 475.636L154.656 476.404C154.496 476.22 154.268 476.052 153.972 475.9C153.676 475.74 153.284 475.66 152.796 475.66C151.924 475.66 151.488 475.936 151.488 476.488C151.488 476.752 151.58 476.936 151.764 477.04C151.956 477.136 152.18 477.2 152.436 477.232L153.42 477.388C153.668 477.428 153.912 477.48 154.152 477.544C154.4 477.608 154.62 477.708 154.812 477.844C155.012 477.972 155.172 478.14 155.292 478.348C155.42 478.556 155.484 478.82 155.484 479.14C155.484 479.764 155.24 480.256 154.752 480.616C154.272 480.968 153.608 481.144 152.76 481.144ZM168.423 479.944H168.363C168.299 480.104 168.215 480.26 168.111 480.412C168.015 480.556 167.895 480.684 167.751 480.796C167.607 480.9 167.439 480.984 167.247 481.048C167.055 481.112 166.831 481.144 166.575 481.144C165.951 481.144 165.447 480.94 165.063 480.532C164.679 480.124 164.487 479.544 164.487 478.792V474.808H165.795V478.6C165.795 479.584 166.223 480.076 167.079 480.076C167.247 480.076 167.411 480.056 167.571 480.016C167.731 479.968 167.875 479.9 168.003 479.812C168.131 479.724 168.231 479.616 168.303 479.488C168.383 479.352 168.423 479.192 168.423 479.008V474.808H169.731V481H168.423V479.944ZM174.346 481.144C173.674 481.144 173.094 481.036 172.606 480.82C172.126 480.604 171.738 480.316 171.442 479.956L172.246 479.236C172.518 479.532 172.822 479.76 173.158 479.92C173.502 480.072 173.906 480.148 174.37 480.148C174.794 480.148 175.134 480.076 175.39 479.932C175.654 479.788 175.786 479.564 175.786 479.26C175.786 479.132 175.762 479.024 175.714 478.936C175.666 478.848 175.598 478.776 175.51 478.72C175.422 478.664 175.318 478.62 175.198 478.588C175.086 478.556 174.966 478.532 174.838 478.516L173.854 478.36C173.614 478.328 173.37 478.276 173.122 478.204C172.874 478.132 172.65 478.032 172.45 477.904C172.258 477.768 172.098 477.596 171.97 477.388C171.85 477.18 171.79 476.916 171.79 476.596C171.79 475.964 172.03 475.484 172.51 475.156C172.998 474.828 173.638 474.664 174.43 474.664C175.006 474.664 175.502 474.752 175.918 474.928C176.342 475.096 176.694 475.332 176.974 475.636L176.242 476.404C176.082 476.22 175.854 476.052 175.558 475.9C175.262 475.74 174.87 475.66 174.382 475.66C173.51 475.66 173.074 475.936 173.074 476.488C173.074 476.752 173.166 476.936 173.35 477.04C173.542 477.136 173.766 477.2 174.022 477.232L175.006 477.388C175.254 477.428 175.498 477.48 175.738 477.544C175.986 477.608 176.206 477.708 176.398 477.844C176.598 477.972 176.758 478.14 176.878 478.348C177.006 478.556 177.07 478.82 177.07 479.14C177.07 479.764 176.826 480.256 176.338 480.616C175.858 480.968 175.194 481.144 174.346 481.144ZM181.662 481.144C181.19 481.144 180.766 481.068 180.39 480.916C180.014 480.764 179.698 480.548 179.442 480.268C179.186 479.988 178.99 479.652 178.854 479.26C178.718 478.86 178.65 478.412 178.65 477.916C178.65 477.42 178.718 476.972 178.854 476.572C178.998 476.172 179.194 475.832 179.442 475.552C179.698 475.264 180.006 475.044 180.366 474.892C180.726 474.74 181.126 474.664 181.566 474.664C181.998 474.664 182.39 474.74 182.742 474.892C183.094 475.036 183.394 475.244 183.642 475.516C183.89 475.788 184.078 476.112 184.206 476.488C184.342 476.864 184.41 477.28 184.41 477.736V478.228H179.97V478.432C179.97 478.92 180.122 479.32 180.426 479.632C180.73 479.936 181.15 480.088 181.686 480.088C182.086 480.088 182.426 480.004 182.706 479.836C182.994 479.66 183.226 479.428 183.402 479.14L184.218 479.86C184.01 480.22 183.69 480.524 183.258 480.772C182.834 481.02 182.302 481.144 181.662 481.144ZM181.566 475.66C181.334 475.66 181.118 475.7 180.918 475.78C180.726 475.86 180.558 475.976 180.414 476.128C180.278 476.272 180.17 476.444 180.09 476.644C180.01 476.844 179.97 477.064 179.97 477.304V477.388H183.078V477.268C183.078 476.78 182.938 476.392 182.658 476.104C182.386 475.808 182.022 475.66 181.566 475.66ZM198.164 481C197.796 481 197.5 480.908 197.276 480.724C197.052 480.532 196.92 480.26 196.88 479.908H196.82C196.708 480.316 196.484 480.624 196.148 480.832C195.82 481.04 195.416 481.144 194.936 481.144C194.336 481.144 193.852 480.984 193.484 480.664C193.124 480.336 192.944 479.88 192.944 479.296C192.944 478.648 193.18 478.168 193.652 477.856C194.124 477.544 194.816 477.388 195.728 477.388H196.724V477.076C196.724 476.708 196.636 476.432 196.46 476.248C196.292 476.056 196.004 475.96 195.596 475.96C195.22 475.96 194.916 476.032 194.684 476.176C194.452 476.32 194.252 476.508 194.084 476.74L193.112 475.876C193.32 475.524 193.644 475.236 194.084 475.012C194.532 474.78 195.104 474.664 195.8 474.664C196.648 474.664 197.308 474.86 197.78 475.252C198.26 475.636 198.5 476.22 198.5 477.004V479.716H199.184V481H198.164ZM195.608 479.98C195.92 479.98 196.184 479.904 196.4 479.752C196.616 479.6 196.724 479.38 196.724 479.092V478.348H195.776C195.048 478.348 194.684 478.592 194.684 479.08V479.32C194.684 479.536 194.768 479.7 194.936 479.812C195.104 479.924 195.328 479.98 195.608 479.98ZM203.368 481.144C202.88 481.144 202.44 481.072 202.048 480.928C201.664 480.776 201.336 480.56 201.064 480.28C200.8 480 200.596 479.66 200.452 479.26C200.308 478.86 200.236 478.408 200.236 477.904C200.236 477.4 200.308 476.948 200.452 476.548C200.596 476.148 200.8 475.808 201.064 475.528C201.336 475.248 201.664 475.036 202.048 474.892C202.44 474.74 202.876 474.664 203.356 474.664C204.036 474.664 204.58 474.804 204.988 475.084C205.404 475.356 205.72 475.72 205.936 476.176L204.568 476.92C204.456 476.68 204.308 476.48 204.124 476.32C203.948 476.16 203.692 476.08 203.356 476.08C202.948 476.08 202.632 476.2 202.408 476.44C202.192 476.672 202.084 476.992 202.084 477.4V478.408C202.084 478.816 202.192 479.14 202.408 479.38C202.632 479.612 202.956 479.728 203.38 479.728C203.724 479.728 203.992 479.648 204.184 479.488C204.384 479.328 204.552 479.12 204.688 478.864L206.032 479.632C205.808 480.088 205.48 480.456 205.048 480.736C204.624 481.008 204.064 481.144 203.368 481.144ZM207.599 479.62H209.027V476.188H207.599V474.808H210.803V476.56H210.887C210.943 476.336 211.019 476.12 211.115 475.912C211.219 475.696 211.347 475.508 211.499 475.348C211.659 475.18 211.851 475.048 212.075 474.952C212.299 474.856 212.563 474.808 212.867 474.808H213.455V476.44H212.135C211.695 476.44 211.363 476.572 211.139 476.836C210.915 477.092 210.803 477.408 210.803 477.784V479.62H212.843V481H207.599V479.62ZM217.506 481.144C217.026 481.144 216.594 481.072 216.21 480.928C215.826 480.776 215.498 480.56 215.226 480.28C214.962 480 214.758 479.66 214.614 479.26C214.47 478.86 214.398 478.408 214.398 477.904C214.398 477.4 214.47 476.948 214.614 476.548C214.758 476.148 214.962 475.808 215.226 475.528C215.498 475.248 215.826 475.036 216.21 474.892C216.594 474.74 217.026 474.664 217.506 474.664C217.986 474.664 218.418 474.74 218.802 474.892C219.186 475.036 219.51 475.248 219.774 475.528C220.046 475.808 220.254 476.148 220.398 476.548C220.542 476.948 220.614 477.4 220.614 477.904C220.614 478.408 220.542 478.86 220.398 479.26C220.254 479.66 220.046 480 219.774 480.28C219.51 480.56 219.186 480.776 218.802 480.928C218.418 481.072 217.986 481.144 217.506 481.144ZM217.506 479.824C217.906 479.824 218.218 479.7 218.442 479.452C218.666 479.204 218.778 478.852 218.778 478.396V477.412C218.778 476.956 218.666 476.604 218.442 476.356C218.218 476.108 217.906 475.984 217.506 475.984C217.106 475.984 216.794 476.108 216.57 476.356C216.346 476.604 216.234 476.956 216.234 477.412V478.396C216.234 478.852 216.346 479.204 216.57 479.452C216.794 479.7 217.106 479.824 217.506 479.824ZM224.63 481.144C223.942 481.144 223.342 481.04 222.83 480.832C222.326 480.624 221.946 480.34 221.69 479.98L222.686 479.056C222.926 479.32 223.206 479.528 223.526 479.68C223.854 479.824 224.226 479.896 224.642 479.896C224.994 479.896 225.27 479.844 225.47 479.74C225.67 479.628 225.77 479.46 225.77 479.236C225.77 479.06 225.702 478.94 225.566 478.876C225.43 478.804 225.242 478.748 225.002 478.708L224.006 478.552C223.726 478.512 223.466 478.452 223.226 478.372C222.986 478.284 222.778 478.168 222.602 478.024C222.426 477.88 222.286 477.704 222.182 477.496C222.078 477.288 222.026 477.036 222.026 476.74C222.026 476.092 222.274 475.584 222.77 475.216C223.266 474.848 223.962 474.664 224.858 474.664C225.466 474.664 225.982 474.748 226.406 474.916C226.838 475.076 227.182 475.308 227.438 475.612L226.55 476.62C226.366 476.42 226.13 476.252 225.842 476.116C225.554 475.98 225.206 475.912 224.798 475.912C224.11 475.912 223.766 476.12 223.766 476.536C223.766 476.72 223.834 476.848 223.97 476.92C224.106 476.984 224.294 477.036 224.534 477.076L225.518 477.232C225.798 477.272 226.058 477.336 226.298 477.424C226.538 477.504 226.746 477.616 226.922 477.76C227.106 477.904 227.25 478.08 227.354 478.288C227.458 478.496 227.51 478.748 227.51 479.044C227.51 479.692 227.258 480.204 226.754 480.58C226.258 480.956 225.55 481.144 224.63 481.144ZM231.825 481.144C231.137 481.144 230.537 481.04 230.025 480.832C229.521 480.624 229.141 480.34 228.885 479.98L229.881 479.056C230.121 479.32 230.401 479.528 230.721 479.68C231.049 479.824 231.421 479.896 231.837 479.896C232.189 479.896 232.465 479.844 232.665 479.74C232.865 479.628 232.965 479.46 232.965 479.236C232.965 479.06 232.897 478.94 232.761 478.876C232.625 478.804 232.437 478.748 232.197 478.708L231.201 478.552C230.921 478.512 230.661 478.452 230.421 478.372C230.181 478.284 229.973 478.168 229.797 478.024C229.621 477.88 229.481 477.704 229.377 477.496C229.273 477.288 229.221 477.036 229.221 476.74C229.221 476.092 229.469 475.584 229.965 475.216C230.461 474.848 231.157 474.664 232.053 474.664C232.661 474.664 233.177 474.748 233.601 474.916C234.033 475.076 234.377 475.308 234.633 475.612L233.745 476.62C233.561 476.42 233.325 476.252 233.037 476.116C232.749 475.98 232.401 475.912 231.993 475.912C231.305 475.912 230.961 476.12 230.961 476.536C230.961 476.72 231.029 476.848 231.165 476.92C231.301 476.984 231.489 477.036 231.729 477.076L232.713 477.232C232.993 477.272 233.253 477.336 233.493 477.424C233.733 477.504 233.941 477.616 234.117 477.76C234.301 477.904 234.445 478.08 234.549 478.288C234.653 478.496 234.705 478.748 234.705 479.044C234.705 479.692 234.453 480.204 233.949 480.58C233.453 480.956 232.745 481.144 231.825 481.144ZM248.532 481C248.164 481 247.868 480.908 247.644 480.724C247.42 480.532 247.288 480.26 247.248 479.908H247.188C247.076 480.316 246.852 480.624 246.516 480.832C246.188 481.04 245.784 481.144 245.304 481.144C244.704 481.144 244.22 480.984 243.852 480.664C243.492 480.336 243.312 479.88 243.312 479.296C243.312 478.648 243.548 478.168 244.02 477.856C244.492 477.544 245.184 477.388 246.096 477.388H247.092V477.076C247.092 476.708 247.004 476.432 246.828 476.248C246.66 476.056 246.372 475.96 245.964 475.96C245.588 475.96 245.284 476.032 245.052 476.176C244.82 476.32 244.62 476.508 244.451 476.74L243.479 475.876C243.688 475.524 244.012 475.236 244.451 475.012C244.9 474.78 245.472 474.664 246.168 474.664C247.016 474.664 247.676 474.86 248.148 475.252C248.628 475.636 248.868 476.22 248.868 477.004V479.716H249.552V481H248.532ZM245.976 479.98C246.288 479.98 246.552 479.904 246.768 479.752C246.984 479.6 247.092 479.38 247.092 479.092V478.348H246.144C245.416 478.348 245.052 478.592 245.052 479.08V479.32C245.052 479.536 245.136 479.7 245.304 479.812C245.472 479.924 245.696 479.98 245.976 479.98ZM250.699 479.62H252.595V473.5H250.699V472.12H254.371V479.62H256.267V481H250.699V479.62ZM257.894 479.62H259.79V473.5H257.894V472.12H261.566V479.62H263.462V481H257.894V479.62ZM276.881 474.808H278.201L275.201 482.2C275.041 482.6 274.829 482.9 274.565 483.1C274.309 483.3 273.937 483.4 273.449 483.4H272.405V482.344H273.869L274.433 480.916L271.937 474.808H273.305L274.289 477.4L275.057 479.524H275.129L275.897 477.4L276.881 474.808ZM282.264 481.144C281.808 481.144 281.396 481.068 281.028 480.916C280.668 480.764 280.36 480.548 280.104 480.268C279.856 479.988 279.664 479.648 279.528 479.248C279.392 478.848 279.324 478.4 279.324 477.904C279.324 477.408 279.392 476.96 279.528 476.56C279.664 476.16 279.856 475.82 280.104 475.54C280.36 475.26 280.668 475.044 281.028 474.892C281.396 474.74 281.808 474.664 282.264 474.664C282.72 474.664 283.128 474.74 283.488 474.892C283.856 475.044 284.164 475.26 284.412 475.54C284.668 475.82 284.864 476.16 285 476.56C285.136 476.96 285.204 477.408 285.204 477.904C285.204 478.4 285.136 478.848 285 479.248C284.864 479.648 284.668 479.988 284.412 480.268C284.164 480.548 283.856 480.764 283.488 480.916C283.128 481.068 282.72 481.144 282.264 481.144ZM282.264 480.112C282.744 480.112 283.124 479.968 283.404 479.68C283.692 479.384 283.836 478.948 283.836 478.372V477.436C283.836 476.86 283.692 476.428 283.404 476.14C283.124 475.844 282.744 475.696 282.264 475.696C281.784 475.696 281.4 475.844 281.112 476.14C280.832 476.428 280.692 476.86 280.692 477.436V478.372C280.692 478.948 280.832 479.384 281.112 479.68C281.4 479.968 281.784 480.112 282.264 480.112ZM290.743 479.944H290.683C290.619 480.104 290.535 480.26 290.431 480.412C290.335 480.556 290.215 480.684 290.071 480.796C289.927 480.9 289.759 480.984 289.567 481.048C289.375 481.112 289.151 481.144 288.895 481.144C288.271 481.144 287.767 480.94 287.383 480.532C286.999 480.124 286.807 479.544 286.807 478.792V474.808H288.115V478.6C288.115 479.584 288.543 480.076 289.399 480.076C289.567 480.076 289.731 480.056 289.891 480.016C290.051 479.968 290.195 479.9 290.323 479.812C290.451 479.724 290.551 479.616 290.623 479.488C290.703 479.352 290.743 479.192 290.743 479.008V474.808H292.051V481H290.743V479.944ZM293.967 479.944H295.611V475.864H293.967V474.808H296.919V476.452H296.991C297.047 476.236 297.127 476.028 297.231 475.828C297.335 475.628 297.467 475.456 297.627 475.312C297.787 475.16 297.983 475.04 298.215 474.952C298.447 474.856 298.719 474.808 299.031 474.808H299.775V476.056H298.551C298.071 476.056 297.679 476.2 297.375 476.488C297.071 476.768 296.919 477.148 296.919 477.628V479.944H299.163V481H293.967V479.944ZM75.844 497C75.476 497 75.18 496.908 74.956 496.724C74.732 496.532 74.6 496.26 74.56 495.908H74.5C74.388 496.316 74.164 496.624 73.828 496.832C73.5 497.04 73.096 497.144 72.616 497.144C72.016 497.144 71.532 496.984 71.164 496.664C70.804 496.336 70.624 495.88 70.624 495.296C70.624 494.648 70.86 494.168 71.332 493.856C71.804 493.544 72.496 493.388 73.408 493.388H74.404V493.076C74.404 492.708 74.316 492.432 74.14 492.248C73.972 492.056 73.684 491.96 73.276 491.96C72.9 491.96 72.596 492.032 72.364 492.176C72.132 492.32 71.932 492.508 71.764 492.74L70.792 491.876C71 491.524 71.324 491.236 71.764 491.012C72.212 490.78 72.784 490.664 73.48 490.664C74.328 490.664 74.988 490.86 75.46 491.252C75.94 491.636 76.18 492.22 76.18 493.004V495.716H76.864V497H75.844ZM73.288 495.98C73.6 495.98 73.864 495.904 74.08 495.752C74.296 495.6 74.404 495.38 74.404 495.092V494.348H73.456C72.728 494.348 72.364 494.592 72.364 495.08V495.32C72.364 495.536 72.448 495.7 72.616 495.812C72.784 495.924 73.008 495.98 73.288 495.98ZM77.9033 490.808H79.6793V491.936H79.7633C79.9153 491.568 80.1353 491.264 80.4233 491.024C80.7113 490.784 81.1033 490.664 81.5993 490.664C81.9433 490.664 82.2553 490.728 82.5353 490.856C82.8233 490.984 83.0673 491.18 83.2673 491.444C83.4753 491.708 83.6353 492.044 83.7473 492.452C83.8673 492.86 83.9273 493.344 83.9273 493.904C83.9273 494.464 83.8673 494.948 83.7473 495.356C83.6353 495.764 83.4753 496.1 83.2673 496.364C83.0673 496.628 82.8233 496.824 82.5353 496.952C82.2553 497.08 81.9433 497.144 81.5993 497.144C81.1033 497.144 80.7113 497.028 80.4233 496.796C80.1353 496.556 79.9153 496.248 79.7633 495.872H79.6793V499.4H77.9033V490.808ZM80.8313 495.764C81.2313 495.764 81.5393 495.644 81.7553 495.404C81.9713 495.156 82.0793 494.816 82.0793 494.384V493.424C82.0793 492.992 81.9713 492.656 81.7553 492.416C81.5393 492.168 81.2313 492.044 80.8313 492.044C80.5193 492.044 80.2473 492.12 80.0153 492.272C79.7913 492.424 79.6793 492.664 79.6793 492.992V494.816C79.6793 495.144 79.7913 495.384 80.0153 495.536C80.2473 495.688 80.5193 495.764 80.8313 495.764ZM85.0986 490.808H86.8746V491.936H86.9586C87.1106 491.568 87.3306 491.264 87.6186 491.024C87.9066 490.784 88.2986 490.664 88.7946 490.664C89.1386 490.664 89.4506 490.728 89.7306 490.856C90.0186 490.984 90.2626 491.18 90.4626 491.444C90.6706 491.708 90.8306 492.044 90.9426 492.452C91.0626 492.86 91.1226 493.344 91.1226 493.904C91.1226 494.464 91.0626 494.948 90.9426 495.356C90.8306 495.764 90.6706 496.1 90.4626 496.364C90.2626 496.628 90.0186 496.824 89.7306 496.952C89.4506 497.08 89.1386 497.144 88.7946 497.144C88.2986 497.144 87.9066 497.028 87.6186 496.796C87.3306 496.556 87.1106 496.248 86.9586 495.872H86.8746V499.4H85.0986V490.808ZM88.0266 495.764C88.4266 495.764 88.7346 495.644 88.9506 495.404C89.1666 495.156 89.2746 494.816 89.2746 494.384V493.424C89.2746 492.992 89.1666 492.656 88.9506 492.416C88.7346 492.168 88.4266 492.044 88.0266 492.044C87.7146 492.044 87.4426 492.12 87.2106 492.272C86.9866 492.424 86.8746 492.664 86.8746 492.992V494.816C86.8746 495.144 86.9866 495.384 87.2106 495.536C87.4426 495.688 87.7146 495.764 88.0266 495.764ZM95.1139 497.144C94.4259 497.144 93.8259 497.04 93.3139 496.832C92.8099 496.624 92.4299 496.34 92.1739 495.98L93.1699 495.056C93.4099 495.32 93.6899 495.528 94.0099 495.68C94.3379 495.824 94.7099 495.896 95.1259 495.896C95.4779 495.896 95.7539 495.844 95.9539 495.74C96.1539 495.628 96.2539 495.46 96.2539 495.236C96.2539 495.06 96.1859 494.94 96.0499 494.876C95.9139 494.804 95.7259 494.748 95.4859 494.708L94.4899 494.552C94.2099 494.512 93.9499 494.452 93.7099 494.372C93.4699 494.284 93.2619 494.168 93.0859 494.024C92.9099 493.88 92.7699 493.704 92.6659 493.496C92.5619 493.288 92.5099 493.036 92.5099 492.74C92.5099 492.092 92.7579 491.584 93.2539 491.216C93.7499 490.848 94.4459 490.664 95.3419 490.664C95.9499 490.664 96.4659 490.748 96.8899 490.916C97.3219 491.076 97.6659 491.308 97.9219 491.612L97.0339 492.62C96.8499 492.42 96.6139 492.252 96.3259 492.116C96.0379 491.98 95.6899 491.912 95.2819 491.912C94.5939 491.912 94.2499 492.12 94.2499 492.536C94.2499 492.72 94.3179 492.848 94.4539 492.92C94.5899 492.984 94.7779 493.036 95.0179 493.076L96.0019 493.232C96.2819 493.272 96.5419 493.336 96.7819 493.424C97.0219 493.504 97.2299 493.616 97.4059 493.76C97.5899 493.904 97.7339 494.08 97.8379 494.288C97.9419 494.496 97.9939 494.748 97.9939 495.044C97.9939 495.692 97.7419 496.204 97.2379 496.58C96.7419 496.956 96.0339 497.144 95.1139 497.144ZM102.381 497.12C101.997 497.12 101.725 497.04 101.565 496.88C101.413 496.72 101.337 496.524 101.337 496.292V495.98C101.337 495.748 101.413 495.552 101.565 495.392C101.725 495.232 101.997 495.152 102.381 495.152C102.765 495.152 103.033 495.232 103.185 495.392C103.345 495.552 103.425 495.748 103.425 495.98V496.292C103.425 496.524 103.345 496.72 103.185 496.88C103.033 497.04 102.765 497.12 102.381 497.12Z" fill="black"/>
</svg>
