<svg width="164" height="186" viewBox="0 0 164 186" fill="none" xmlns="http://www.w3.org/2000/svg">
<g clip-path="url(#clip0_21_677)">
<path d="M79.9188 77.9887H103.701C103.779 77.9887 103.853 77.9579 103.908 77.9031C103.963 77.8483 103.993 77.7739 103.993 77.6964C103.993 77.6189 103.963 77.5446 103.908 77.4898C103.853 77.435 103.779 77.4042 103.701 77.4042H79.9188C79.8413 77.4042 79.7671 77.435 79.7123 77.4898C79.6575 77.5446 79.6268 77.6189 79.6268 77.6964C79.6268 77.7739 79.6575 77.8483 79.7123 77.9031C79.7671 77.9579 79.8413 77.9887 79.9188 77.9887Z" fill="#3F3D56"/>
<path d="M90.8754 50.172C90.3502 50.4392 89.95 50.901 89.7599 51.4591C89.5698 52.0171 89.6048 52.6273 89.8574 53.16C89.9105 53.2674 89.9723 53.3703 90.0424 53.4675L85.5645 59.9689L88.0616 63.4033L93.2335 53.8336C93.614 53.5119 93.8773 53.0731 93.9824 52.5859C94.0874 52.0986 94.0284 51.5903 93.8144 51.1401C93.6902 50.8852 93.517 50.6572 93.3047 50.4692C93.0924 50.2812 92.8452 50.1369 92.5772 50.0445C92.3092 49.9521 92.0257 49.9135 91.7427 49.9308C91.4598 49.9481 91.1831 50.0209 90.9283 50.1452C90.9105 50.1539 90.8929 50.1628 90.8754 50.172Z" fill="#FFB6B6"/>
<path d="M64.3108 51.4825C63.824 51.761 63.4027 52.1411 63.0758 52.597C62.7488 53.053 62.5238 53.574 62.4161 54.1248C62.3083 54.6755 62.3204 55.243 62.4514 55.7886C62.5824 56.3343 62.8293 56.8453 63.1752 57.2869L68.7336 64.3819L81.0404 73.4855C81.0404 73.4855 89.7078 65.908 89.7773 63.5528C89.8467 61.1975 88.9192 60.6987 89.8467 61.1975C90.7743 61.6964 91.6188 61.3224 91.3004 61.0591C90.982 60.7959 91.0943 60.7667 91.2874 60.3172C91.4805 59.8677 92.1591 57.748 92.1591 57.748L88.7793 54.9872C88.7793 54.9872 85.6246 56.9023 85.4168 57.8028C85.2091 58.7033 86.3444 58.3016 85.2091 58.7033C84.0738 59.105 82.3948 57.9333 83.7396 59.205C85.0843 60.4766 85.0418 61.0886 83.9277 61.1843C82.8137 61.28 81.0552 64.3832 81.0552 64.3832L69.035 52.137C68.4304 51.521 67.639 51.1227 66.7843 51.0043C65.9297 50.8859 65.0599 51.0541 64.3108 51.4825Z" fill="#E6E6E6"/>
<path d="M63.1029 185.716H26.1943C25.4346 185.715 24.7063 185.413 24.1692 184.875C23.632 184.338 23.3299 183.609 23.329 182.849V151.758C23.3299 150.998 23.632 150.269 24.1692 149.732C24.7063 149.194 25.4346 148.892 26.1943 148.891H63.1029C63.8626 148.892 64.5908 149.194 65.128 149.732C65.6652 150.269 65.9673 150.998 65.9682 151.758V182.849C65.9673 183.609 65.6652 184.338 65.128 184.875C64.5908 185.413 63.8626 185.715 63.1029 185.716Z" fill="#F2F2F2"/>
<path d="M6.68035 142.544L6.66575 145.764L19.3457 147.353L19.367 142.601L6.68035 142.544Z" fill="#FFB6B6"/>
<path d="M8.17463 141.711L8.47095 147.089L6.16886 147.079L2.6176 152.175C2.44223 152.426 2.19106 152.615 1.90074 152.714C1.61041 152.813 1.29615 152.816 1.00382 152.724C0.711498 152.631 0.456425 152.447 0.275836 152.199C0.0952469 151.951 -0.00140131 151.652 6.82666e-06 151.345L0.0290443 144.944L2.31117 143.851L0.0360051 143.409L0.0469498 140.996L8.17463 141.711Z" fill="#2F2E41"/>
<path d="M112.572 75.4386C104.785 73.499 98.0997 69.6863 92.8734 63.3925C92.475 63.1482 92.1897 62.7558 92.0801 62.3013C91.9704 61.8467 92.0454 61.3673 92.2886 60.968L101.38 46.0809C101.624 45.6822 102.016 45.3967 102.47 45.287C102.924 45.1773 103.403 45.2523 103.802 45.4957L123.5 57.5418C123.899 57.786 124.184 58.1785 124.294 58.633C124.404 59.0875 124.329 59.567 124.085 59.9662L114.994 74.8533C114.75 75.252 114.358 75.5376 113.904 75.6473C113.45 75.757 112.971 75.6819 112.572 75.4386Z" fill="#E6E6E6"/>
<path d="M107.319 70.6582C103.219 70.2103 98.9585 66.9312 94.6555 62.9139C94.2824 62.6852 94.0152 62.3176 93.9125 61.892C93.8098 61.4663 93.88 61.0172 94.1078 60.6433L101.921 47.8491C102.149 47.4757 102.517 47.2083 102.942 47.1055C103.367 47.0027 103.816 47.073 104.19 47.3009L121.718 58.0203C122.092 58.2491 122.359 58.6166 122.461 59.0423C122.564 59.468 122.494 59.9171 122.266 60.291L117.426 68.2167C116.408 69.88 114.772 71.0711 112.877 71.5288C110.982 71.9865 108.984 71.6734 107.319 70.6582Z" fill="white"/>
<path d="M110.914 55.2852L104.85 65.2783C104.802 65.357 104.739 65.4256 104.665 65.4801C104.591 65.5345 104.506 65.5738 104.417 65.5957C104.327 65.6176 104.235 65.6216 104.144 65.6076C104.053 65.5936 103.965 65.5617 103.887 65.5139C103.808 65.4661 103.739 65.4032 103.685 65.3289C103.631 65.2545 103.591 65.1702 103.569 65.0807C103.548 64.9912 103.544 64.8983 103.558 64.8072C103.572 64.7162 103.604 64.6288 103.651 64.55L109.716 54.557C109.764 54.4782 109.826 54.4097 109.901 54.3552C109.975 54.3007 110.059 54.2614 110.149 54.2395C110.238 54.2177 110.331 54.2136 110.422 54.2277C110.513 54.2417 110.6 54.2736 110.679 54.3214C110.758 54.3692 110.826 54.4321 110.88 54.5064C110.935 54.5807 110.974 54.6651 110.996 54.7546C111.018 54.8441 111.022 54.937 111.008 55.0281C110.994 55.1191 110.962 55.2065 110.914 55.2852Z" fill="black"/>
<path d="M113.548 56.886L107.484 66.879C107.387 67.0378 107.231 67.1516 107.051 67.1956C106.871 67.2396 106.68 67.2101 106.521 67.1136C106.363 67.0171 106.249 66.8615 106.204 66.681C106.16 66.5005 106.189 66.3098 106.285 66.1508L112.35 56.1578C112.446 55.999 112.602 55.8852 112.783 55.8412C112.963 55.7972 113.154 55.8267 113.312 55.9232C113.471 56.0197 113.585 56.1753 113.629 56.3558C113.673 56.5363 113.644 56.727 113.548 56.886Z" fill="black"/>
<path d="M72.5394 88.8321C72.5394 88.8321 71.2602 108.571 70.203 111.628C69.0552 114.937 69.2042 119.958 67.4811 124.765C66.9495 126.25 66.4063 127.755 65.8631 129.249C65.755 129.55 65.6441 129.851 65.536 130.152C64.8263 132.095 64.1166 134.006 63.4391 135.813C63.3427 136.067 63.2463 136.318 63.1529 136.567C63.15 136.573 63.15 136.578 63.147 136.581C60.9099 142.47 58.9941 147.103 58.2289 147.868C57.4112 148.687 51.8856 149.026 45.0575 149.119C32.4029 149.289 15.2713 148.619 15.2713 148.619L15.2976 141.731C15.2976 141.731 15.4494 141.687 15.7327 141.602C16.2555 141.45 17.228 141.167 18.4984 140.79C23.805 139.223 34.3217 136.07 39.1376 134.328C40.4986 133.837 41.4039 133.457 41.6084 133.255C42.8058 132.086 43.3344 133.255 44.0937 134.424C44.853 135.593 45.0867 134.424 46.0796 133.565C47.0726 132.706 49.3097 133.887 49.3097 133.887C49.3097 133.887 49.3302 133.109 49.3623 131.87C49.409 130.041 49.4791 127.194 49.5492 124.344C49.5463 124.342 49.5463 124.342 49.5492 124.342C49.5755 123.269 49.6018 122.196 49.6251 121.179C49.6456 120.39 49.6631 119.633 49.6806 118.932C49.7273 116.83 49.7595 115.241 49.7595 114.843C49.7595 113.545 49.7595 114.554 50.7846 113.771C50.9377 113.65 51.0831 113.521 51.2197 113.382C51.4385 113.185 51.6398 112.97 51.8213 112.739C51.8973 112.575 51.4271 112.797 50.8167 112.675C50.4859 112.607 50.1798 112.451 49.9318 112.222C48.6438 111.061 50.034 107.502 50.034 107.502C47.1077 101.645 47.3179 96.84 48.6876 93.14C49.711 90.4822 51.3365 88.0982 53.4364 86.1755C54.2361 85.4145 55.1064 84.7314 56.0356 84.1355L56.1262 83.6533L57.1162 78.2962C59.2823 77.0915 61.7853 76.6363 64.2364 77.0015C66.0712 77.2689 67.8476 77.845 69.4904 78.7054C70.8321 79.3802 72.0913 80.2079 73.2432 81.172L72.5394 88.8321Z" fill="#2F2E41"/>
<path d="M45.6305 178.263L48.8343 178.561L51.5334 166.061L46.8051 165.621L45.6305 178.263Z" fill="#FFB6B6"/>
<path d="M54.8587 183.162L50.0983 179.172L50.3115 176.878L49.2046 176.84L45.773 176.729L44.9319 176.7L43.5038 184.74L45.9074 184.962L46.5469 182.732L47.4319 185.105L53.8015 185.698C54.1068 185.727 54.4132 185.657 54.676 185.498C54.9387 185.34 55.1441 185.102 55.2622 184.819C55.3802 184.536 55.4047 184.222 55.3321 183.924C55.2595 183.626 55.0936 183.359 54.8587 183.162Z" fill="#2F2E41"/>
<path d="M63.4391 135.813C62.2213 142.453 57.0607 158.016 53.9416 167.125C52.5193 171.287 51.5264 174.104 51.5264 174.104L49.9055 173.593L47.1719 172.728L46.1731 172.412L44.964 172.029C44.964 172.029 45.2473 157.06 45.0575 149.119C44.9932 146.559 44.8822 144.73 44.6983 144.367C43.9389 142.877 45.2093 142.719 46.5498 142.342C47.8933 141.965 46.8448 141.398 46.322 140.188C45.9687 139.381 46.6638 138.309 47.1573 137.695C47.2933 137.522 47.4386 137.358 47.5925 137.201C47.5925 137.201 44.1755 136.038 40.3117 134.725C40.3088 134.728 40.3087 134.725 40.3087 134.725C39.9203 134.594 39.529 134.462 39.1376 134.328C40.4986 133.837 41.4039 133.457 41.6084 133.255C42.8058 132.086 43.3344 133.255 44.0937 134.424C44.8531 135.593 45.0867 134.424 46.0797 133.565C47.0726 132.706 49.3097 133.887 49.3097 133.887C49.3097 133.887 49.3302 133.109 49.3623 131.87C49.409 130.041 49.4791 127.194 49.5492 124.344C49.5463 124.342 49.5463 124.342 49.5492 124.342C49.5755 123.269 49.6018 122.196 49.6251 121.179C51.6841 122.758 53.6817 124.306 55.4924 125.739C55.4954 125.741 55.5012 125.744 55.5012 125.75C59.8557 129.193 63.1237 131.958 63.5822 132.835C63.7895 133.232 63.7195 134.287 63.4391 135.813Z" fill="#2F2E41"/>
<path d="M51.4829 85.5798C50.1138 85.1618 48.6742 86.5728 48.7159 88.0047C48.7576 89.4365 49.9001 90.6486 51.2163 91.2118C52.5324 91.775 73.396 95.2912 74.9399 94.4968C76.4837 93.7024 77.6055 91.7969 76.9238 90.1992C76.4847 89.1703 75.5383 84.3865 74.6988 83.6477C71.8728 81.1609 74.4662 77.9171 76.2111 74.5806C77.7545 71.6294 81.0821 69.372 81.049 66.0412C81.0252 63.6472 79.2157 61.6967 77.5215 60.0064L72.1347 54.6322L67.0209 49.5304C65.9281 48.4402 61.24 47.8635 60.4006 48.3701C58.6465 49.4288 54.3061 67.0692 53.6859 68.6781C53.4867 69.1947 54.7809 75.8058 55.3084 75.9728C56.7662 80.5956 54.2026 81.4877 51.4159 85.4528" fill="#E6E6E6"/>
<path d="M93.3337 58.8756C92.7621 59.0187 92.2689 59.3792 91.9589 59.8806C91.649 60.382 91.5467 60.9846 91.674 61.5603C91.7017 61.6769 91.739 61.791 91.7855 61.9014L85.9686 67.2365L87.6353 71.1427L94.8142 62.9722C95.2569 62.7437 95.6115 62.3749 95.8228 61.9235C96.0341 61.4721 96.09 60.9634 95.982 60.4768C95.9179 60.2005 95.8 59.9395 95.6351 59.7088C95.4702 59.4781 95.2615 59.2821 95.0209 59.1321C94.7803 58.9821 94.5126 58.881 94.233 58.8346C93.9534 58.7881 93.6673 58.7972 93.3912 58.8614C93.372 58.8659 93.3528 58.8706 93.3337 58.8756Z" fill="#FFB6B6"/>
<path d="M67.1487 54.2103C66.6119 54.3728 66.1164 54.6491 65.6959 55.0203C65.2753 55.3916 64.9396 55.8491 64.7116 56.3618C64.4835 56.8745 64.3685 57.4303 64.3743 57.9914C64.3801 58.5526 64.5065 59.1059 64.7451 59.6138L68.5778 67.7727L78.5395 79.399C78.5395 79.399 88.6804 73.9523 89.2742 71.6722C89.868 69.3921 89.0754 68.6984 89.868 69.3921C90.6607 70.0858 91.5674 69.9102 91.3158 69.5824C91.0643 69.2546 91.1803 69.2512 91.4689 68.8563C91.7575 68.4614 92.8925 66.5472 92.8925 66.5472L90.215 63.1002C90.215 63.1002 86.7123 64.261 86.3086 65.0922C85.905 65.9235 87.1012 65.7859 85.9049 65.9235C84.7087 66.061 83.3339 64.5434 84.3605 66.0837C85.3872 67.624 85.209 68.211 84.1018 68.055C82.9946 67.8991 80.5873 70.5303 80.5873 70.5303L71.607 55.905C71.1553 55.1694 70.4729 54.6041 69.6664 54.2975C68.8598 53.991 67.9745 53.9603 67.1487 54.2103Z" fill="#E6E6E6"/>
<path d="M63.8078 46.1627C68.6301 46.1627 72.5394 42.2506 72.5394 37.4248C72.5394 32.5991 68.6301 28.687 63.8078 28.687C58.9854 28.687 55.0762 32.5991 55.0762 37.4248C55.0762 42.2506 58.9854 46.1627 63.8078 46.1627Z" fill="#FFB6B6"/>
<path d="M57.0607 30.9649C57.1506 30.1786 57.6892 29.2067 58.0638 28.5096C58.4384 27.8125 59.1619 27.2433 59.9513 27.2918C60.2739 27.3292 60.5826 27.4442 60.8512 27.6268C61.1198 27.8095 61.3402 28.0544 61.4937 28.3408C61.7951 28.9174 61.9593 29.5558 61.9735 30.2062C62.0561 31.6576 61.8139 33.1091 61.2647 34.4549C60.7155 35.8007 59.8731 37.0069 58.7989 37.9855C58.187 38.5348 57.4505 39.0236 56.6287 39.0422C56.2554 39.0333 55.8878 38.9497 55.5473 38.7965C55.2068 38.6432 54.9004 38.4234 54.6461 38.1498C53.3159 36.8167 53.1147 34.625 53.8251 32.8803C54.5356 31.1356 54.8526 30.4567 56.4766 29.5037" fill="#2F2E41"/>
<path d="M69.3268 43.5322C69.1808 44.3096 70.5242 48.0066 70.0949 48.673C70.0949 48.673 65.6495 50.2181 63.9498 50.3292C61.8733 50.4636 60.2032 49.6111 58.261 48.3281C58.2258 47.6321 58.0246 46.9546 57.674 46.3524C57.7034 46.8189 57.6087 47.2848 57.3995 47.7027C54.5549 45.4348 53.4872 39.1982 56.2996 36.3019L59.2201 29.58C58.344 29.8723 60.9888 25.3566 63.7779 28.627C67.2679 25.0702 74.0288 30.1905 74.8758 34.7644C74.0607 33.732 73.6362 33.8537 73.4271 34.5657C73.1869 33.9669 72.8063 33.4346 72.3174 33.0138C72.5606 33.4946 72.6848 34.0268 72.6796 34.5657C67.1744 34.9076 68.199 38.6242 72.7113 44.1918C71.0427 43.1523 72.1687 47.6316 71.2777 48.7022C71.2339 47.954 69.4845 44.2599 69.3268 43.5322Z" fill="#2F2E41"/>
<path d="M126.15 134.132H149.933C150.01 134.132 150.084 134.101 150.139 134.047C150.194 133.992 150.225 133.917 150.225 133.84C150.225 133.762 150.194 133.688 150.139 133.633C150.084 133.579 150.01 133.548 149.933 133.548H126.15C126.073 133.548 125.998 133.579 125.944 133.633C125.889 133.688 125.858 133.762 125.858 133.84C125.858 133.917 125.889 133.992 125.944 134.047C125.998 134.101 126.073 134.132 126.15 134.132Z" fill="#3F3D56"/>
<path d="M115.928 35.0566H139.711C139.788 35.0566 139.863 35.0258 139.917 34.971C139.972 34.9162 140.003 34.8418 140.003 34.7643C140.003 34.6868 139.972 34.6125 139.917 34.5576C139.863 34.5028 139.788 34.472 139.711 34.472H115.928C115.851 34.472 115.777 34.5028 115.722 34.5576C115.667 34.6125 115.636 34.6868 115.636 34.7643C115.636 34.8418 115.667 34.9162 115.722 34.971C115.777 35.0258 115.851 35.0566 115.928 35.0566Z" fill="#3F3D56"/>
<path d="M134.503 29.9501C129.681 23.5317 126.894 16.3544 126.802 8.17165C126.647 7.73068 126.673 7.24604 126.874 6.82407C127.075 6.4021 127.436 6.07724 127.876 5.92078L144.312 0.101185C144.752 -0.0542789 145.237 -0.0284788 145.658 0.17293C146.08 0.374338 146.405 0.734905 146.561 1.17553L154.261 22.954C154.417 23.3949 154.391 23.8796 154.19 24.3015C153.988 24.7235 153.628 25.0484 153.188 25.2048L136.752 31.0244C136.311 31.1799 135.827 31.1541 135.405 30.9527C134.984 30.7513 134.659 30.3907 134.503 29.9501Z" fill="#E6E6E6"/>
<path d="M133.438 22.9257C130.537 19.9913 129.296 14.7577 128.487 8.9245C128.342 8.51151 128.366 8.05764 128.554 7.66244C128.743 7.26725 129.08 6.96302 129.493 6.81649L143.618 1.81505C144.03 1.66943 144.484 1.69358 144.879 1.8822C145.274 2.07081 145.578 2.40849 145.724 2.82115L152.577 22.201C152.722 22.614 152.698 23.0679 152.509 23.4631C152.321 23.8583 151.983 24.1625 151.571 24.309L142.821 27.4073C140.983 28.0559 138.962 27.9483 137.203 27.1081C135.444 26.2679 134.09 24.7638 133.438 22.9257Z" fill="white"/>
<path d="M145.913 13.2612L134.91 17.1916C134.735 17.2541 134.542 17.2445 134.374 17.1648C134.206 17.0852 134.077 16.942 134.014 16.7667C133.952 16.5915 133.962 16.3986 134.041 16.2305C134.121 16.0624 134.264 15.9328 134.439 15.8703L145.442 11.9399C145.617 11.8776 145.81 11.8873 145.978 11.967C146.145 12.0467 146.275 12.1899 146.337 12.365C146.4 12.5401 146.39 12.7328 146.311 12.9009C146.231 13.0689 146.088 13.1985 145.913 13.2612Z" fill="black"/>
<path d="M136.039 12.7037L133.618 13.5684C133.531 13.5995 133.439 13.6131 133.347 13.6086C133.255 13.6041 133.165 13.5815 133.082 13.542C132.998 13.5026 132.924 13.4471 132.862 13.3788C132.8 13.3105 132.752 13.2306 132.721 13.1438C132.69 13.057 132.677 12.9649 132.681 12.8728C132.686 12.7808 132.709 12.6905 132.748 12.6072C132.788 12.524 132.843 12.4493 132.912 12.3875C132.98 12.3257 133.06 12.278 133.147 12.2471L135.567 11.3824C135.742 11.3201 135.935 11.3298 136.103 11.4095C136.271 11.4892 136.4 11.6324 136.462 11.8075C136.525 11.9826 136.515 12.1753 136.436 12.3434C136.356 12.5114 136.214 12.641 136.039 12.7037Z" fill="black"/>
<path d="M147.985 19.07L136.982 23.0004C136.807 23.0627 136.615 23.053 136.447 22.9733C136.279 22.8936 136.15 22.7504 136.087 22.5753C136.025 22.4002 136.034 22.2075 136.114 22.0394C136.193 21.8714 136.336 21.7418 136.511 21.6791L147.514 17.7487C147.689 17.6864 147.882 17.6962 148.05 17.7759C148.217 17.8556 148.347 17.9987 148.409 18.1738C148.472 18.3489 148.462 18.5416 148.383 18.7097C148.303 18.8778 148.16 19.0074 147.985 19.07Z" fill="black"/>
<path d="M146.949 16.1656L135.946 20.096C135.771 20.1585 135.578 20.1489 135.41 20.0692C135.242 19.9896 135.113 19.8464 135.05 19.6711C134.988 19.4959 134.998 19.303 135.077 19.1349C135.157 18.9668 135.3 18.8372 135.475 18.7747L146.478 14.8443C146.565 14.8132 146.657 14.7995 146.749 14.8041C146.841 14.8086 146.931 14.8312 147.014 14.8706C147.098 14.9101 147.172 14.9655 147.234 15.0339C147.296 15.1022 147.344 15.1821 147.375 15.2689C147.406 15.3557 147.419 15.4478 147.415 15.5398C147.41 15.6319 147.387 15.7222 147.348 15.8054C147.308 15.8887 147.253 15.9634 147.184 16.0252C147.116 16.087 147.036 16.1347 146.949 16.1656Z" fill="black"/>
<path d="M127.737 10.5069C129.35 10.5069 130.657 9.19843 130.657 7.58433C130.657 5.97023 129.35 4.66174 127.737 4.66174C126.124 4.66174 124.816 5.97023 124.816 7.58433C124.816 9.19843 126.124 10.5069 127.737 10.5069Z" fill="black"/>
<path d="M144.14 128.733C139.318 122.315 136.531 115.138 136.44 106.955C136.285 106.514 136.31 106.029 136.512 105.607C136.713 105.185 137.073 104.861 137.514 104.704L153.949 98.8845C154.39 98.729 154.874 98.7549 155.296 98.9563C155.718 99.1577 156.042 99.5182 156.199 99.9589L163.899 121.737C164.054 122.178 164.029 122.663 163.827 123.085C163.626 123.507 163.266 123.832 162.825 123.988L146.39 129.808C145.949 129.963 145.465 129.937 145.043 129.736C144.621 129.535 144.297 129.174 144.14 128.733Z" fill="#E6E6E6"/>
<path d="M143.075 121.709C140.175 118.775 138.934 113.541 138.125 107.708C137.979 107.295 138.003 106.841 138.192 106.446C138.38 106.051 138.718 105.746 139.13 105.6L153.255 100.598C153.668 100.453 154.122 100.477 154.517 100.666C154.912 100.854 155.216 101.192 155.362 101.604L162.214 120.984C162.36 121.397 162.336 121.851 162.147 122.246C161.959 122.642 161.621 122.946 161.209 123.092L152.458 126.191C150.62 126.839 148.6 126.732 146.841 125.891C145.082 125.051 143.727 123.547 143.075 121.709Z" fill="white"/>
<path d="M155.551 112.045L144.548 115.975C144.373 116.037 144.18 116.028 144.012 115.948C143.844 115.868 143.715 115.725 143.652 115.55C143.59 115.375 143.599 115.182 143.679 115.014C143.758 114.846 143.901 114.716 144.077 114.654L155.08 110.723C155.255 110.661 155.447 110.671 155.615 110.75C155.783 110.83 155.912 110.973 155.975 111.148C156.037 111.323 156.028 111.516 155.948 111.684C155.869 111.852 155.726 111.982 155.551 112.045Z" fill="black"/>
<path d="M145.676 111.487L143.256 112.352C143.08 112.414 142.888 112.404 142.72 112.325C142.552 112.245 142.423 112.102 142.36 111.927C142.298 111.752 142.307 111.559 142.387 111.391C142.466 111.223 142.609 111.093 142.784 111.03L145.205 110.166C145.292 110.135 145.384 110.121 145.476 110.125C145.568 110.13 145.658 110.153 145.741 110.192C145.824 110.231 145.899 110.287 145.961 110.355C146.023 110.424 146.07 110.503 146.101 110.59C146.132 110.677 146.146 110.769 146.141 110.861C146.137 110.953 146.114 111.044 146.075 111.127C146.035 111.21 145.98 111.285 145.911 111.347C145.843 111.408 145.763 111.456 145.676 111.487Z" fill="black"/>
<path d="M156.587 114.949L145.584 118.879C145.409 118.942 145.216 118.932 145.048 118.853C144.88 118.773 144.751 118.63 144.688 118.454C144.626 118.279 144.635 118.086 144.715 117.918C144.794 117.75 144.937 117.621 145.113 117.558L156.116 113.628C156.202 113.597 156.294 113.583 156.386 113.587C156.478 113.592 156.569 113.615 156.652 113.654C156.735 113.693 156.81 113.749 156.872 113.817C156.934 113.886 156.981 113.965 157.012 114.052C157.043 114.139 157.057 114.231 157.052 114.323C157.048 114.415 157.025 114.505 156.985 114.589C156.946 114.672 156.89 114.747 156.822 114.809C156.754 114.87 156.674 114.918 156.587 114.949Z" fill="black"/>
<path d="M137.959 108.998C139.572 108.998 140.879 107.69 140.879 106.075C140.879 104.461 139.572 103.153 137.959 103.153C136.346 103.153 135.038 104.461 135.038 106.075C135.038 107.69 136.346 108.998 137.959 108.998Z" fill="black"/>
<path d="M91.7273 53.4389C93.3402 53.4389 94.6478 52.1304 94.6478 50.5163C94.6478 48.9022 93.3402 47.5938 91.7273 47.5938C90.1143 47.5938 88.8068 48.9022 88.8068 50.5163C88.8068 52.1304 90.1143 53.4389 91.7273 53.4389Z" fill="black"/>
<path d="M61.3824 36.3738C61.3119 36.3737 61.2439 36.3482 61.1908 36.3019C61.1377 36.2556 61.1031 36.1916 61.0934 36.1218C61.0837 36.052 61.0995 35.981 61.138 35.922C61.1764 35.8629 61.2349 35.8197 61.3026 35.8004C61.3792 35.674 61.3479 35.1418 61.3226 34.7119C61.2276 33.0975 61.0686 30.3955 63.69 28.5716C63.7535 28.5274 63.8321 28.5102 63.9083 28.5239C63.9845 28.5376 64.0522 28.581 64.0964 28.6447C64.1406 28.7083 64.1577 28.7869 64.1441 28.8631C64.1304 28.9394 64.087 29.0071 64.0234 29.0514C61.671 30.6883 61.8122 33.089 61.9057 34.6775C61.959 35.5857 61.9977 36.2416 61.4472 36.3665C61.426 36.3714 61.4042 36.3738 61.3824 36.3738Z" fill="black"/>
<path d="M4.16502 185.652C4.16489 185.698 4.17378 185.743 4.1912 185.786C4.20862 185.828 4.23421 185.866 4.26651 185.898C4.29881 185.931 4.33718 185.956 4.37941 185.974C4.42164 185.991 4.46689 186 4.51257 186H78.4859C78.5781 186 78.6665 185.963 78.7317 185.898C78.7968 185.833 78.8335 185.744 78.8335 185.652C78.8335 185.56 78.7968 185.472 78.7317 185.406C78.6665 185.341 78.5781 185.304 78.4859 185.304H4.51257C4.46689 185.304 4.42164 185.313 4.37942 185.331C4.33719 185.348 4.29882 185.374 4.26652 185.406C4.23422 185.438 4.20862 185.477 4.1912 185.519C4.17378 185.561 4.16489 185.607 4.16502 185.652Z" fill="#CCCCCC"/>
<path d="M61.5185 29.9862C59.736 29.2459 57.8374 28.8248 55.9092 28.7422C54.3799 28.6773 52.5552 29.0186 51.9335 30.4184C51.5563 31.2676 51.7572 32.263 52.1022 33.1258C52.4473 33.9886 52.9314 34.8037 53.1312 35.7113C53.5616 37.6664 52.5458 39.7383 50.9868 40.9929C49.4278 42.2475 47.4159 42.8012 45.4312 43.0529C46.9223 43.6065 48.4363 44.1654 50.0211 44.2982C51.606 44.431 53.2987 44.0862 54.482 43.0228C55.7625 41.872 56.2546 40.0847 56.4724 38.3762C56.6902 36.6678 56.7015 34.9082 57.2802 33.2862C57.8589 31.6642 59.1883 30.1536 60.9034 30.0097" fill="#2F2E41"/>
</g>
<defs>
<clipPath id="clip0_21_677">
<rect width="164" height="186" fill="white"/>
</clipPath>
</defs>
</svg>
