<svg width="353" height="154" viewBox="0 0 353 154" fill="none" xmlns="http://www.w3.org/2000/svg">
<g clip-path="url(#clip0_21_422)">
<path d="M74.8613 145.431C66.4093 140.222 60.2639 130.859 61.5217 121.393C69.1322 128.866 79.2924 133.552 90.2047 134.622C94.4147 135.02 99.1411 135.049 102.131 137.88C103.991 139.642 104.782 142.216 104.822 144.706C104.863 147.195 104.23 149.645 103.602 152.063L103.756 152.667C93.6749 152.314 83.3134 150.639 74.8613 145.431Z" fill="#F0F0F0"/>
<path d="M61.7333 121.391C64.895 128.7 70.4115 134.881 77.4993 139.056C79.0083 139.98 80.6619 140.674 82.3993 141.111C84.1063 141.486 85.8882 141.421 87.5598 140.924C89.1283 140.49 90.6795 139.874 92.3322 139.809C93.1787 139.787 94.0205 139.935 94.8024 140.242C95.5843 140.549 96.2887 141.01 96.8693 141.593C98.356 143.01 99.2156 144.847 99.9902 146.672C100.85 148.698 101.71 150.815 103.461 152.315C103.673 152.497 103.363 152.798 103.151 152.616C100.103 150.006 99.7679 145.817 97.3725 142.789C96.2547 141.375 94.6798 140.272 92.7545 140.226C91.0708 140.185 89.4706 140.818 87.8865 141.271C86.2633 141.778 84.5334 141.902 82.8479 141.631C81.0925 141.279 79.4134 140.647 77.8824 139.762C74.402 137.821 71.2659 135.375 68.589 132.513C65.5147 129.263 63.0511 125.539 61.3046 121.503C61.1966 121.253 61.6261 121.143 61.7333 121.391Z" fill="white"/>
<path d="M75.1334 137.838C74.2313 138.868 72.9715 139.561 71.5791 139.793C70.1868 140.025 68.7525 139.782 67.5324 139.106C67.286 138.968 67.5003 138.6 67.747 138.738C68.882 139.369 70.2181 139.595 71.5142 139.377C72.8103 139.158 73.981 138.508 74.8151 137.545C74.9966 137.336 75.3139 137.63 75.1334 137.838Z" fill="white"/>
<path d="M86.7951 141.243C86.5514 138.519 85.2311 135.983 83.0976 134.139C82.886 133.957 83.1967 133.656 83.408 133.838C85.6244 135.761 86.9927 138.403 87.2397 141.238C87.2631 141.508 86.8184 141.512 86.7951 141.243Z" fill="white"/>
<path d="M66.0741 129.087C66.511 128.757 66.8544 128.33 67.0736 127.844C67.2929 127.358 67.381 126.828 67.3301 126.302C67.3031 126.032 67.7479 126.028 67.7747 126.296C67.828 126.878 67.73 127.463 67.489 128.001C67.2481 128.538 66.8716 129.012 66.3925 129.38C66.3504 129.418 66.2945 129.44 66.2361 129.441C66.1777 129.442 66.1212 129.421 66.0781 129.384C66.0362 129.345 66.0122 129.292 66.0115 129.236C66.0107 129.18 66.0333 129.127 66.0741 129.087Z" fill="white"/>
<path d="M90.3521 104.071C90.374 104.239 90.3959 104.407 90.4211 104.577C90.728 106.834 91.2282 109.064 91.9169 111.245C91.9674 111.414 92.0211 111.585 92.0766 111.753C93.7951 116.99 96.5268 121.879 100.133 126.173C101.569 127.88 103.141 129.482 104.835 130.964C107.174 133.01 109.882 135.053 111.327 137.634C111.481 137.902 111.617 138.179 111.735 138.462L104.524 152.442C104.491 152.466 104.461 152.491 104.427 152.516L104.166 153.086C104.073 153.015 103.979 152.94 103.886 152.87C103.831 152.829 103.779 152.785 103.725 152.744C103.689 152.716 103.654 152.688 103.62 152.664C103.608 152.655 103.596 152.645 103.588 152.638C103.554 152.614 103.525 152.589 103.495 152.567C102.963 152.148 102.434 151.725 101.907 151.298C101.904 151.296 101.904 151.296 101.902 151.292C97.8957 148.026 94.1425 144.415 91.088 140.381C90.9962 140.259 90.9009 140.136 90.8123 140.009C89.4462 138.183 88.2401 136.254 87.2062 134.243C86.6439 133.139 86.1409 132.01 85.6993 130.859C84.5643 127.882 83.9315 124.754 83.8241 121.592C83.611 115.286 85.5327 108.987 90.0067 104.417C90.1212 104.3 90.2342 104.187 90.3521 104.071Z" fill="#F0F0F0"/>
<path d="M90.5235 104.189C88.3948 111.825 88.8643 119.901 91.8654 127.27C92.4817 128.867 93.3604 130.362 94.4691 131.701C95.5937 132.972 97.0576 133.934 98.7088 134.489C100.237 135.036 101.868 135.428 103.229 136.316C103.919 136.781 104.497 137.378 104.926 138.069C105.354 138.759 105.624 139.528 105.716 140.324C106.001 142.302 105.517 144.258 104.974 146.156C104.371 148.263 103.709 150.443 104.153 152.638C104.206 152.904 103.767 152.967 103.713 152.702C102.942 148.882 105.341 145.347 105.356 141.565C105.364 139.8 104.809 138.023 103.301 136.889C101.983 135.898 100.302 135.493 98.7488 134.952C97.1297 134.433 95.6695 133.547 94.4959 132.372C93.3188 131.091 92.3806 129.63 91.7217 128.052C90.1784 124.52 89.2318 120.782 88.9166 116.973C88.5313 112.627 88.935 108.251 90.1101 104.034C90.1829 103.774 90.5959 103.93 90.5235 104.189Z" fill="white"/>
<path d="M90.7514 124.951C89.3756 125.259 87.9288 125.095 86.6692 124.487C85.4097 123.88 84.4194 122.869 83.8753 121.635C83.7661 121.385 84.1719 121.213 84.2812 121.463C84.7857 122.613 85.7082 123.555 86.8823 124.118C88.0564 124.681 89.4048 124.829 90.6841 124.535C90.9622 124.471 91.0279 124.887 90.7514 124.951Z" fill="white"/>
<path d="M97.8951 134.309C99.4344 131.995 99.9951 129.218 99.4654 126.532C99.4127 126.265 99.8523 126.202 99.905 126.468C100.451 129.265 99.8609 132.154 98.2535 134.558C98.1001 134.787 97.7426 134.536 97.8951 134.309Z" fill="white"/>
<path d="M89.09 112.805C89.6486 112.791 90.1947 112.645 90.6792 112.382C91.1637 112.119 91.5714 111.746 91.8658 111.297C92.0161 111.066 92.3735 111.316 92.2242 111.545C91.8965 112.04 91.4457 112.452 90.911 112.744C90.3764 113.036 89.7743 113.199 89.1573 113.221C89.0994 113.227 89.0409 113.213 88.9938 113.18C88.9468 113.147 88.9146 113.099 88.9039 113.045C88.8953 112.99 88.91 112.934 88.9449 112.889C88.9797 112.844 89.0319 112.814 89.09 112.805Z" fill="white"/>
<path d="M332.797 145.431C341.249 140.222 347.394 130.859 346.137 121.393C338.526 128.866 328.366 133.552 317.454 134.622C313.244 135.02 308.517 135.049 305.527 137.88C303.667 139.642 302.877 142.216 302.836 144.706C302.795 147.195 303.428 149.645 304.056 152.063L303.902 152.667C313.983 152.314 324.345 150.639 332.797 145.431Z" fill="#F0F0F0"/>
<path d="M345.925 121.391C342.763 128.7 337.247 134.881 330.159 139.056C328.65 139.98 326.996 140.674 325.259 141.111C323.552 141.486 321.77 141.421 320.098 140.924C318.53 140.49 316.979 139.874 315.326 139.809C314.48 139.787 313.638 139.935 312.856 140.242C312.074 140.549 311.37 141.01 310.789 141.593C309.302 143.01 308.443 144.847 307.668 146.672C306.808 148.698 305.949 150.815 304.197 152.315C303.985 152.497 304.296 152.798 304.508 152.616C307.555 150.006 307.89 145.817 310.286 142.789C311.404 141.375 312.978 140.272 314.904 140.226C316.587 140.185 318.188 140.818 319.772 141.271C321.395 141.778 323.125 141.902 324.81 141.631C326.566 141.279 328.245 140.647 329.776 139.762C333.256 137.821 336.392 135.375 339.069 132.513C342.144 129.263 344.607 125.539 346.354 121.503C346.462 121.253 346.032 121.143 345.925 121.391Z" fill="white"/>
<path d="M332.525 137.838C333.427 138.868 334.687 139.561 336.079 139.793C337.472 140.025 338.906 139.782 340.126 139.106C340.372 138.968 340.158 138.6 339.911 138.738C338.776 139.369 337.44 139.595 336.144 139.377C334.848 139.158 333.677 138.508 332.843 137.545C332.662 137.336 332.344 137.63 332.525 137.838Z" fill="white"/>
<path d="M320.863 141.243C321.107 138.519 322.427 135.983 324.561 134.139C324.772 133.957 324.462 133.656 324.25 133.838C322.034 135.761 320.666 138.403 320.419 141.238C320.395 141.508 320.84 141.512 320.863 141.243Z" fill="white"/>
<path d="M341.584 129.087C341.147 128.757 340.804 128.33 340.585 127.844C340.365 127.358 340.277 126.828 340.328 126.302C340.355 126.032 339.91 126.028 339.884 126.296C339.83 126.878 339.928 127.463 340.169 128.001C340.41 128.538 340.787 129.012 341.266 129.38C341.308 129.418 341.364 129.44 341.422 129.441C341.481 129.442 341.537 129.421 341.58 129.384C341.622 129.345 341.646 129.292 341.647 129.236C341.648 129.18 341.625 129.127 341.584 129.087Z" fill="white"/>
<path d="M317.306 104.071C317.284 104.239 317.262 104.407 317.237 104.577C316.93 106.834 316.43 109.064 315.741 111.245C315.691 111.414 315.637 111.585 315.582 111.753C313.863 116.99 311.132 121.879 307.526 126.173C306.089 127.88 304.517 129.482 302.824 130.964C300.485 133.01 297.777 135.053 296.332 137.634C296.178 137.902 296.041 138.179 295.924 138.462L303.135 152.442C303.168 152.466 303.198 152.491 303.231 152.516L303.492 153.086C303.585 153.015 303.68 152.94 303.773 152.87C303.827 152.829 303.879 152.785 303.934 152.744C303.969 152.716 304.005 152.688 304.038 152.664C304.05 152.655 304.062 152.645 304.071 152.638C304.104 152.614 304.133 152.589 304.164 152.567C304.695 152.148 305.224 151.725 305.751 151.298C305.754 151.296 305.754 151.296 305.756 151.292C309.763 148.026 313.516 144.415 316.57 140.381C316.662 140.259 316.757 140.136 316.846 140.009C318.212 138.183 319.418 136.254 320.452 134.243C321.014 133.139 321.517 132.01 321.959 130.859C323.094 127.882 323.727 124.754 323.834 121.592C324.047 115.286 322.126 108.987 317.652 104.417C317.537 104.3 317.424 104.187 317.306 104.071Z" fill="#F0F0F0"/>
<path d="M317.135 104.189C319.264 111.825 318.794 119.901 315.793 127.27C315.177 128.867 314.298 130.362 313.189 131.701C312.065 132.972 310.601 133.934 308.95 134.489C307.421 135.036 305.79 135.428 304.429 136.316C303.739 136.781 303.161 137.378 302.733 138.069C302.304 138.759 302.035 139.528 301.942 140.324C301.657 142.302 302.141 144.258 302.684 146.156C303.287 148.263 303.949 150.443 303.506 152.638C303.452 152.904 303.892 152.967 303.945 152.702C304.716 148.882 302.318 145.347 302.302 141.565C302.295 139.8 302.85 138.023 304.357 136.889C305.676 135.898 307.357 135.493 308.909 134.952C310.529 134.433 311.989 133.547 313.162 132.372C314.34 131.091 315.278 129.63 315.937 128.052C317.48 124.52 318.426 120.782 318.742 116.973C319.127 112.627 318.723 108.251 317.548 104.034C317.475 103.774 317.062 103.93 317.135 104.189Z" fill="white"/>
<path d="M316.907 124.951C318.283 125.259 319.729 125.095 320.989 124.487C322.249 123.88 323.239 122.869 323.783 121.635C323.892 121.385 323.486 121.213 323.377 121.463C322.873 122.613 321.95 123.555 320.776 124.118C319.602 124.681 318.253 124.829 316.974 124.535C316.696 124.471 316.63 124.887 316.907 124.951Z" fill="white"/>
<path d="M309.763 134.309C308.224 131.995 307.663 129.218 308.193 126.532C308.245 126.265 307.806 126.202 307.753 126.468C307.208 129.265 307.797 132.154 309.405 134.558C309.558 134.787 309.916 134.536 309.763 134.309Z" fill="white"/>
<path d="M318.568 112.805C318.01 112.791 317.464 112.645 316.979 112.382C316.495 112.119 316.087 111.746 315.792 111.297C315.642 111.066 315.285 111.316 315.434 111.545C315.762 112.04 316.213 112.452 316.747 112.744C317.282 113.036 317.884 113.199 318.501 113.221C318.559 113.227 318.617 113.213 318.665 113.18C318.712 113.147 318.744 113.099 318.754 113.045C318.763 112.99 318.748 112.934 318.713 112.889C318.679 112.844 318.626 112.814 318.568 112.805Z" fill="white"/>
<path d="M91.5084 99.4966C91.1886 99.3146 90.9149 99.0685 90.7066 98.7757C90.4982 98.4828 90.3603 98.1504 90.3026 97.8017C90.2448 97.453 90.2687 97.0965 90.3723 96.7575C90.476 96.4184 90.657 96.105 90.9027 95.8392L86.4067 88.3873L91.1115 88.6748L94.6596 95.7072C95.1043 96.127 95.3708 96.6865 95.4084 97.2796C95.4461 97.8728 95.2523 98.4584 94.8639 98.9255C94.4755 99.3926 93.9193 99.7088 93.3009 99.814C92.6824 99.9193 92.0446 99.8063 91.5084 99.4966Z" fill="#FFB6B6"/>
<path d="M56.8984 150.297H60.0112L61.492 138.944L56.898 138.944L56.8984 150.297Z" fill="#FFB6B6"/>
<path d="M56.1046 149.336L62.2344 149.336C63.2704 149.336 64.2642 149.725 64.9968 150.418C65.7293 151.111 66.1409 152.051 66.141 153.03V153.15L56.1048 153.151L56.1046 149.336Z" fill="#2F2E41"/>
<path d="M78.2249 150.297H81.3374L82.8181 138.944L78.2242 138.944L78.2249 150.297Z" fill="#FFB6B6"/>
<path d="M77.4308 149.336L83.5606 149.336C84.5966 149.336 85.5904 149.725 86.323 150.418C87.0556 151.111 87.4671 152.051 87.4672 153.03V153.15L77.431 153.151L77.4308 149.336Z" fill="#2F2E41"/>
<path d="M86.2285 88.7075C86.2285 88.7075 87.0846 100.237 85.3984 106.043C83.7123 111.85 83.4112 146.964 83.4112 146.964H77.7593L72.8606 99.1661L61.5674 147.132L56.1839 146.782L59.1363 90.2605L86.2285 88.7075Z" fill="#2F2E41"/>
<path d="M61.4718 49.8427L65.7926 46.8611L73.0326 48.3519L74.9925 52.7556L78.3695 54.339C79.4799 54.8596 80.44 55.6274 81.1673 56.5764C81.8947 57.5254 82.3675 58.6272 82.5451 59.7871L87.3696 91.2926L59.1363 90.2604L55.7183 53.1567C55.6826 52.7691 55.7294 52.3787 55.8561 52.0086C55.9828 51.6384 56.1867 51.2961 56.4558 51.0018C56.7249 50.7075 57.0537 50.4672 57.4227 50.2952C57.7917 50.1232 58.1934 50.0229 58.6042 50.0003L61.4718 49.8427Z" fill="#3F3D56"/>
<path d="M80.156 56.8L82.7637 60.1241L94.1214 92.8828L88.7976 94.8985L80.2727 79.6338L80.156 56.8Z" fill="#3F3D56"/>
<path d="M70.7036 45.3045C74.1862 45.3045 77.0095 42.6346 77.0095 39.3412C77.0095 36.0478 74.1862 33.3779 70.7036 33.3779C67.2209 33.3779 64.3976 36.0478 64.3976 39.3412C64.3976 42.6346 67.2209 45.3045 70.7036 45.3045Z" fill="#FFB9B9"/>
<path opacity="0.1" d="M56.9566 63.8755L67.247 77.4102L78.7496 84.5034L56.9566 63.8755Z" fill="black"/>
<path d="M67.3617 43.6522C66.923 42.824 66.4718 41.9226 66.6395 41.01C66.8071 40.0975 67.9145 39.3023 68.7692 39.7547C69.1238 38.5428 70.6936 38.0125 72.015 38.1524C73.3364 38.2923 74.5531 38.895 75.8543 39.1538C77.1555 39.4126 78.7357 39.2073 79.439 38.1401L77.7563 38.1126L79.5085 36.1907L77.4774 36.047C78.1809 35.3289 77.994 34.109 77.3129 33.3718C76.6318 32.6347 75.5983 32.2859 74.5897 32.0653C72.5764 31.6265 70.4895 31.5811 68.457 31.932C67.4987 32.0717 66.5753 32.3756 65.7323 32.8287C64.9385 33.2865 64.2826 33.9298 63.8276 34.6967C63.3367 35.5619 63.0713 36.5254 63.0536 37.5071C63.0237 38.822 63.3432 40.1231 63.9829 41.291C64.6226 42.4588 65.5621 43.4562 66.7152 44.1917" fill="#2F2E41"/>
<path d="M302.151 153.304H106.456C104.441 153.302 102.509 152.544 101.084 151.196C99.6585 149.848 98.8569 148.021 98.8546 146.116V7.18819C98.8569 5.2824 99.6585 3.4553 101.084 2.10772C102.509 0.760142 104.441 0.00213956 106.456 0H302.151C304.166 0.00217339 306.098 0.760193 307.523 2.10777C308.948 3.45535 309.75 5.28243 309.752 7.18819V146.116C309.75 148.021 308.948 149.848 307.523 151.196C306.098 152.543 304.166 153.302 302.151 153.304Z" fill="#E4E4E4"/>
<path d="M252.898 63.7877H222.69C221.197 63.7877 219.765 63.2269 218.709 62.2286C217.654 61.2304 217.061 59.8764 217.061 58.4646C217.061 57.0529 217.654 55.699 218.709 54.7007C219.765 53.7024 221.197 53.1416 222.69 53.1416H252.898C254.391 53.1416 255.823 53.7024 256.879 54.7007C257.934 55.699 258.527 57.0529 258.527 58.4646C258.527 59.8764 257.934 61.2304 256.879 62.2286C255.823 63.2269 254.391 63.7877 252.898 63.7877Z" fill="white"/>
<path d="M226.442 78.3374H219.312C218.765 78.3374 218.24 78.1318 217.853 77.7657C217.466 77.3997 217.248 76.9033 217.248 76.3856C217.248 75.868 217.466 75.3715 217.853 75.0055C218.24 74.6395 218.765 74.4338 219.312 74.4338H226.442C226.99 74.4338 227.515 74.6395 227.902 75.0055C228.289 75.3715 228.506 75.868 228.506 76.3856C228.506 76.9033 228.289 77.3997 227.902 77.7657C227.515 78.1318 226.99 78.3374 226.442 78.3374Z" fill="white"/>
<path d="M256.088 78.3374H248.958C248.411 78.3374 247.886 78.1318 247.499 77.7657C247.112 77.3997 246.894 76.9033 246.894 76.3856C246.894 75.868 247.112 75.3715 247.499 75.0055C247.886 74.6395 248.411 74.4338 248.958 74.4338H256.088C256.636 74.4338 257.16 74.6395 257.548 75.0055C257.935 75.3715 258.152 75.868 258.152 76.3856C258.152 76.9033 257.935 77.3997 257.548 77.7657C257.16 78.1318 256.636 78.3374 256.088 78.3374Z" fill="white"/>
<path d="M241.078 78.3374H233.948C233.4 78.3374 232.875 78.1318 232.488 77.7657C232.101 77.3997 231.884 76.9033 231.884 76.3856C231.884 75.868 232.101 75.3715 232.488 75.0055C232.875 74.6395 233.4 74.4338 233.948 74.4338H241.078C241.625 74.4338 242.15 74.6395 242.537 75.0055C242.924 75.3715 243.142 75.868 243.142 76.3856C243.142 76.9033 242.924 77.3997 242.537 77.7657C242.15 78.1318 241.625 78.3374 241.078 78.3374Z" fill="white"/>
<path d="M226.442 85.7897H219.312C218.765 85.7897 218.24 85.584 217.853 85.218C217.466 84.852 217.248 84.3555 217.248 83.8379C217.248 83.3202 217.466 82.8238 217.853 82.4578C218.24 82.0917 218.765 81.8861 219.312 81.8861H226.442C226.99 81.8861 227.515 82.0917 227.902 82.4578C228.289 82.8238 228.506 83.3202 228.506 83.8379C228.506 84.3555 228.289 84.852 227.902 85.218C227.515 85.584 226.99 85.7897 226.442 85.7897Z" fill="white"/>
<path d="M256.088 85.7897H248.958C248.411 85.7897 247.886 85.584 247.499 85.218C247.112 84.852 246.894 84.3555 246.894 83.8379C246.894 83.3202 247.112 82.8238 247.499 82.4578C247.886 82.0917 248.411 81.8861 248.958 81.8861H256.088C256.636 81.8861 257.16 82.0917 257.548 82.4578C257.935 82.8238 258.152 83.3202 258.152 83.8379C258.152 84.3555 257.935 84.852 257.548 85.218C257.16 85.584 256.636 85.7897 256.088 85.7897Z" fill="white"/>
<path d="M241.078 85.7897H233.948C233.4 85.7897 232.875 85.584 232.488 85.218C232.101 84.852 231.884 84.3555 231.884 83.8379C231.884 83.3202 232.101 82.8238 232.488 82.4578C232.875 82.0917 233.4 81.8861 233.948 81.8861H241.078C241.625 81.8861 242.15 82.0917 242.537 82.4578C242.924 82.8238 243.142 83.3202 243.142 83.8379C243.142 84.3555 242.924 84.852 242.537 85.218C242.15 85.584 241.625 85.7897 241.078 85.7897Z" fill="white"/>
<path d="M226.442 93.2419H219.312C218.765 93.2419 218.24 93.0363 217.853 92.6703C217.466 92.3043 217.248 91.8078 217.248 91.2902C217.248 90.7725 217.466 90.2761 217.853 89.91C218.24 89.544 218.765 89.3384 219.312 89.3384H226.442C226.99 89.3384 227.515 89.544 227.902 89.91C228.289 90.2761 228.506 90.7725 228.506 91.2902C228.506 91.8078 228.289 92.3043 227.902 92.6703C227.515 93.0363 226.99 93.2419 226.442 93.2419Z" fill="white"/>
<path d="M256.088 93.2419H248.958C248.411 93.2419 247.886 93.0363 247.499 92.6703C247.112 92.3043 246.894 91.8078 246.894 91.2902C246.894 90.7725 247.112 90.2761 247.499 89.91C247.886 89.544 248.411 89.3384 248.958 89.3384H256.088C256.636 89.3384 257.16 89.544 257.548 89.91C257.935 90.2761 258.152 90.7725 258.152 91.2902C258.152 91.8078 257.935 92.3043 257.548 92.6703C257.16 93.0363 256.636 93.2419 256.088 93.2419Z" fill="white"/>
<path d="M241.078 93.2419H233.948C233.4 93.2419 232.875 93.0363 232.488 92.6703C232.101 92.3043 231.884 91.8078 231.884 91.2902C231.884 90.7725 232.101 90.2761 232.488 89.91C232.875 89.544 233.4 89.3384 233.948 89.3384H241.078C241.625 89.3384 242.15 89.544 242.537 89.91C242.924 90.2761 243.142 90.7725 243.142 91.2902C243.142 91.8078 242.924 92.3043 242.537 92.6703C242.15 93.0363 241.625 93.2419 241.078 93.2419Z" fill="white"/>
<path d="M226.442 100.694H219.312C218.765 100.694 218.24 100.489 217.853 100.123C217.466 99.7565 217.248 99.2601 217.248 98.7424C217.248 98.2248 217.466 97.7284 217.853 97.3623C218.24 96.9963 218.765 96.7906 219.312 96.7906H226.442C226.99 96.7906 227.515 96.9963 227.902 97.3623C228.289 97.7284 228.506 98.2248 228.506 98.7424C228.506 99.2601 228.289 99.7565 227.902 100.123C227.515 100.489 226.99 100.694 226.442 100.694Z" fill="white"/>
<path d="M256.088 100.694H248.958C248.411 100.694 247.886 100.489 247.499 100.123C247.112 99.7565 246.894 99.2601 246.894 98.7424C246.894 98.2248 247.112 97.7284 247.499 97.3623C247.886 96.9963 248.411 96.7906 248.958 96.7906H256.088C256.636 96.7906 257.16 96.9963 257.548 97.3623C257.935 97.7284 258.152 98.2248 258.152 98.7424C258.152 99.2601 257.935 99.7565 257.548 100.123C257.16 100.489 256.636 100.694 256.088 100.694Z" fill="white"/>
<path d="M241.078 100.694H233.948C233.4 100.694 232.875 100.489 232.488 100.123C232.101 99.7565 231.884 99.2601 231.884 98.7424C231.884 98.2248 232.101 97.7284 232.488 97.3623C232.875 96.9963 233.4 96.7906 233.948 96.7906H241.078C241.625 96.7906 242.15 96.9963 242.537 97.3623C242.924 97.7284 243.142 98.2248 243.142 98.7424C243.142 99.2601 242.924 99.7565 242.537 100.123C242.15 100.489 241.625 100.694 241.078 100.694Z" fill="white"/>
<path d="M178.221 92.887C188.791 92.887 197.36 84.7841 197.36 74.7887C197.36 64.7932 188.791 56.6903 178.221 56.6903C167.651 56.6903 159.083 64.7932 159.083 74.7887C159.083 84.7841 167.651 92.887 178.221 92.887Z" fill="#CACACA"/>
<path d="M178.221 96.968C176.729 96.9664 175.298 96.4051 174.243 95.4072C173.188 94.4093 172.594 93.0562 172.592 91.645V57.9323C172.592 57.233 172.737 56.5403 173.019 55.894C173.302 55.2477 173.717 54.6603 174.239 54.1656C174.762 53.6708 175.383 53.2784 176.066 53.0106C176.749 52.7428 177.482 52.605 178.221 52.605C178.961 52.605 179.693 52.7428 180.376 53.0106C181.06 53.2784 181.68 53.6708 182.203 54.1656C182.726 54.6603 183.14 55.2477 183.423 55.894C183.705 56.5403 183.851 57.233 183.85 57.9323V91.645C183.848 93.0562 183.255 94.4092 182.2 95.4071C181.144 96.4051 179.714 96.9664 178.221 96.968Z" fill="white"/>
<path d="M228.22 61.502H222.966C222.767 61.502 222.576 61.4272 222.435 61.2941C222.295 61.161 222.216 60.9805 222.216 60.7923C222.216 60.604 222.295 60.4235 222.435 60.2904C222.576 60.1573 222.767 60.0825 222.966 60.0825H228.22C228.419 60.0825 228.61 60.1573 228.75 60.2904C228.891 60.4235 228.97 60.604 228.97 60.7923C228.97 60.9805 228.891 61.161 228.75 61.2941C228.61 61.4272 228.419 61.502 228.22 61.502Z" fill="#E4E4E4"/>
<path d="M236.476 61.6795H231.222C231.023 61.6795 230.832 61.6047 230.691 61.4716C230.55 61.3385 230.471 61.158 230.471 60.9697C230.471 60.7815 230.55 60.601 230.691 60.4679C230.832 60.3348 231.023 60.26 231.222 60.26H236.476C236.675 60.26 236.865 60.3348 237.006 60.4679C237.147 60.601 237.226 60.7815 237.226 60.9697C237.226 61.158 237.147 61.3385 237.006 61.4716C236.865 61.6047 236.675 61.6795 236.476 61.6795Z" fill="#E4E4E4"/>
<path d="M244.731 61.857H239.478C239.279 61.857 239.088 61.7822 238.947 61.6491C238.806 61.516 238.727 61.3355 238.727 61.1472C238.727 60.959 238.806 60.7785 238.947 60.6454C239.088 60.5123 239.279 60.4375 239.478 60.4375H244.731C244.93 60.4375 245.121 60.5123 245.262 60.6454C245.403 60.7785 245.482 60.959 245.482 61.1472C245.482 61.3355 245.403 61.516 245.262 61.6491C245.121 61.7822 244.93 61.857 244.731 61.857Z" fill="#E4E4E4"/>
<path d="M252.987 62.0343H247.733C247.534 62.0343 247.343 61.9596 247.203 61.8265C247.062 61.6934 246.983 61.5128 246.983 61.3246C246.983 61.1364 247.062 60.9558 247.203 60.8227C247.343 60.6896 247.534 60.6149 247.733 60.6149H252.987C253.186 60.6149 253.377 60.6896 253.518 60.8227C253.658 60.9558 253.738 61.1364 253.738 61.3246C253.738 61.5128 253.658 61.6934 253.518 61.8265C253.377 61.9596 253.186 62.0343 252.987 62.0343Z" fill="#E4E4E4"/>
<path d="M123.808 131.39C123.808 132.269 123.992 133.139 124.35 133.95C124.708 134.761 125.233 135.496 125.895 136.113H122.795C121.88 136.113 120.974 135.943 120.129 135.612C119.284 135.281 118.517 134.796 117.87 134.184C117.223 133.573 116.71 132.847 116.36 132.048C116.01 131.249 115.83 130.392 115.83 129.527V22.7535C115.83 21.8886 116.01 21.0322 116.36 20.2332C116.71 19.4341 117.223 18.7081 117.87 18.0965C118.517 17.4849 119.284 16.9998 120.129 16.6688C120.974 16.3378 121.88 16.1675 122.795 16.1675H127.306C126.242 16.7526 125.359 17.5915 124.745 18.6003C124.131 19.6091 123.808 20.7525 123.808 21.9164L123.808 131.39Z" fill="#CACACA"/>
<path d="M352.553 154H0.446747C0.328468 154 0.215152 153.955 0.131637 153.876C0.0481219 153.797 0.0012207 153.689 0.0012207 153.577C0.0012207 153.466 0.0481219 153.358 0.131637 153.279C0.215152 153.2 0.328468 153.155 0.446747 153.155H352.553C352.672 153.155 352.785 153.199 352.869 153.279C352.953 153.358 353 153.465 353 153.577C353 153.69 352.953 153.797 352.869 153.876C352.785 153.955 352.672 154 352.553 154Z" fill="#CACACA"/>
<path d="M123.058 47.3677C120.686 46.7395 118.306 46.1576 115.916 45.6217C107.746 43.7774 99.4636 42.4121 91.1154 41.5336C89.7004 41.1812 88.1955 41.3717 86.9282 42.0636C85.661 42.7555 84.7341 43.8927 84.3493 45.2278L80.1802 59.7774C79.7975 61.1186 79.993 62.5485 80.724 63.7535C81.455 64.9584 82.6618 65.8397 84.0793 66.2041L84.1355 66.2148C89.6519 66.8074 95.2208 67.6307 100.76 68.6811C101.255 68.7734 101.747 68.8692 102.242 68.9686C104.017 69.3164 105.787 69.6878 107.552 70.0829C108.325 70.2532 109.094 70.4306 109.867 70.6116C111.946 71.1013 114.026 71.623 116.108 72.1766C118.423 72.7941 120.74 73.4529 123.058 74.1532C123.309 74.2242 123.561 74.2987 123.808 74.3768V47.5699C123.561 47.499 123.309 47.4315 123.058 47.3677Z" fill="white"/>
<path d="M123.058 47.3677C120.686 46.7395 118.306 46.1576 115.916 45.6217C107.746 43.7774 99.4636 42.4121 91.1154 41.5336C89.7004 41.1812 88.1955 41.3717 86.9282 42.0636C85.661 42.7555 84.7341 43.8927 84.3493 45.2278L80.1802 59.7774C79.7975 61.1186 79.993 62.5485 80.724 63.7535C81.455 64.9584 82.6618 65.8397 84.0793 66.2041L84.1355 66.2148C89.6519 66.8074 95.2208 67.6307 100.76 68.6811C101.255 68.7734 101.747 68.8692 102.242 68.9686C104.017 69.3164 105.787 69.6878 107.552 70.0829C108.325 70.2532 109.094 70.4306 109.867 70.6116C111.946 71.1013 114.026 71.623 116.108 72.1766C118.423 72.7941 120.74 73.4529 123.058 74.1532C123.309 74.2242 123.561 74.2987 123.808 74.3768V73.628C123.557 73.5535 123.305 73.4789 123.058 73.4044C120.926 72.7621 118.797 72.1577 116.671 71.591C115.875 71.3746 115.08 71.1652 114.284 70.9629C112.851 70.5974 111.421 70.2473 109.995 69.9125C109.237 69.7315 108.48 69.5576 107.724 69.3908C107.668 69.3767 107.608 69.366 107.552 69.3518C106.265 69.0644 104.975 68.7899 103.683 68.5285C103.188 68.4292 102.692 68.3298 102.197 68.234C96.2227 67.0629 90.2034 66.1509 84.248 65.5121C83.0299 65.1913 81.9951 64.4285 81.3689 63.3897C80.7427 62.3508 80.5758 61.1201 80.9045 59.9655L85.0736 45.4123C85.4071 44.2544 86.2128 43.2688 87.3138 42.672C88.4149 42.0753 89.7213 41.916 90.9465 42.2291L91.0027 42.2362C99.2449 43.1017 107.423 44.4432 115.492 46.2533C115.575 46.2746 115.658 46.2924 115.74 46.3101C118.187 46.8637 120.626 47.4623 123.058 48.1058C123.305 48.1696 123.557 48.2371 123.808 48.308V47.5699C123.561 47.499 123.309 47.4315 123.058 47.3677Z" fill="black"/>
<path d="M123.808 47.9389V74.0005C123.557 73.9225 123.309 73.8479 123.058 73.7734C120.84 73.1027 118.615 72.4711 116.382 71.8784C114.239 71.3035 112.089 70.7629 109.931 70.2567C109.166 70.0792 108.404 69.9053 107.638 69.735C107.608 69.6073 107.578 69.4795 107.552 69.3518C107.413 68.7414 107.304 68.1239 107.222 67.5029C107.184 67.2651 107.158 67.0274 107.131 66.786C106.737 62.9841 107.287 59.1476 108.739 55.5826C110.19 52.0176 112.503 48.8228 115.492 46.2533C115.601 46.1539 115.714 46.0581 115.826 45.9658C118.251 46.5123 120.661 47.1038 123.058 47.7402C123.309 47.8005 123.561 47.8679 123.808 47.9389Z" fill="black"/>
<path d="M98.8871 58.6098L88.451 57.4459C88.0839 57.4049 87.7118 57.4326 87.356 57.5276C87.0002 57.6226 86.6677 57.7829 86.3774 57.9994C86.0872 58.2159 85.8448 58.4844 85.6643 58.7894C85.4837 59.0945 85.3685 59.4302 85.3251 59.7774C85.2818 60.1246 85.3111 60.4764 85.4116 60.8129C85.512 61.1493 85.6815 61.4638 85.9105 61.7383C86.1394 62.0128 86.4233 62.2419 86.7459 62.4127C87.0685 62.5834 87.4235 62.6924 87.7906 62.7334L98.2265 63.8974C98.967 63.9784 99.7113 63.7783 100.296 63.3411C100.881 62.9039 101.258 62.2652 101.346 61.5652C101.433 60.8651 101.223 60.1608 100.763 59.6068C100.302 59.0528 99.6272 58.6942 98.8871 58.6098ZM100.606 61.4843C100.54 61.9979 100.262 62.466 99.8325 62.786C99.4026 63.106 98.8561 63.2517 98.3128 63.1912L87.8768 62.0272C87.3348 61.9649 86.8411 61.7019 86.5038 61.296C86.1665 60.8901 86.0131 60.3743 86.0771 59.8616C86.1412 59.3489 86.4175 58.8811 86.8455 58.5606C87.2736 58.2402 87.8185 58.0933 88.3608 58.1521L98.7969 59.316C99.3401 59.3782 99.8353 59.6412 100.174 60.0474C100.513 60.4537 100.668 60.9702 100.606 61.4843Z" fill="black"/>
<path d="M123.808 54.0426V66.4028C123.567 66.5396 123.316 66.6605 123.058 66.7647C121.711 67.3334 120.217 67.5175 118.761 67.2943C117.305 67.0711 115.95 66.4504 114.862 65.5085C114.757 65.4198 114.652 65.324 114.55 65.2246C114.449 65.1288 114.352 65.0259 114.258 64.923C113.125 63.6925 112.47 62.1332 112.402 60.5031C112.333 58.8729 112.856 57.2695 113.882 55.958C114.908 54.6466 116.377 53.7057 118.045 53.2909C119.714 52.8761 121.482 53.0124 123.058 53.6771C123.315 53.7861 123.565 53.9082 123.808 54.0426Z" fill="white"/>
<path d="M123.058 62.989C120.104 63.571 117.171 64.2157 114.258 64.923C113.17 65.1856 112.085 65.4577 111.004 65.7392C109.713 66.0763 108.423 66.4253 107.132 66.7861C105.484 67.2474 103.839 67.73 102.197 68.234C101.72 68.383 101.24 68.532 100.76 68.6811C96.1926 70.1219 91.6558 71.7188 87.1939 73.4612C85.774 73.7968 84.5518 74.6493 83.7934 75.833C83.035 77.0168 82.8019 78.4359 83.1448 79.7814L86.9088 94.4304C87.2571 95.7797 88.1572 96.9432 89.4115 97.6656C90.6658 98.3881 92.172 98.6106 93.5995 98.2843L93.6521 98.2666C100.99 95.4205 108.499 92.9889 116.142 90.9847C118.423 90.3849 120.729 89.8195 123.058 89.2884C123.309 89.2316 123.557 89.1748 123.808 89.1216V62.8435C123.557 62.8861 123.309 62.9357 123.058 62.989Z" fill="white"/>
<path d="M123.058 62.989C120.104 63.571 117.171 64.2157 114.258 64.923C113.17 65.1856 112.085 65.4577 111.004 65.7392C109.713 66.0763 108.423 66.4253 107.132 66.7861C105.484 67.2474 103.839 67.73 102.197 68.234C101.72 68.383 101.24 68.532 100.76 68.6811C96.1926 70.1219 91.6558 71.7188 87.1939 73.4612C85.774 73.7968 84.5518 74.6493 83.7934 75.833C83.035 77.0168 82.8019 78.4359 83.1448 79.7814L86.9088 94.4304C87.2571 95.7797 88.1572 96.9432 89.4115 97.6656C90.6658 98.3881 92.172 98.6106 93.5995 98.2843L93.6521 98.2666C100.99 95.4205 108.499 92.9889 116.142 90.9847C118.423 90.3849 120.729 89.8195 123.058 89.2884C123.309 89.2316 123.557 89.1748 123.808 89.1216V88.3906C123.557 88.4474 123.309 88.5041 123.058 88.5609C122.87 88.6035 122.679 88.6461 122.491 88.6887C120.285 89.1961 118.102 89.7332 115.943 90.2998C115.886 90.314 115.826 90.3317 115.77 90.3459C108.166 92.3456 100.694 94.7689 93.3932 97.603C92.162 97.8759 90.8666 97.6782 89.7887 97.0529C88.7108 96.4276 87.9374 95.4252 87.6367 94.2637L83.8766 79.6146C83.5782 78.4482 83.7812 77.2174 84.441 76.1922C85.1009 75.1671 86.1637 74.4312 87.3965 74.1461L87.4528 74.1284C92.3125 72.2262 97.2583 70.5016 102.242 68.9685C102.722 68.8195 103.203 68.674 103.683 68.5285C104.861 68.1772 106.041 67.8353 107.222 67.5029C108.467 67.1516 109.712 66.8133 110.955 66.488C111.038 66.4667 111.121 66.4454 111.203 66.4241C112.419 66.1083 113.639 65.8031 114.862 65.5086C117.575 64.8556 120.307 64.2559 123.058 63.7094C123.305 63.6597 123.557 63.61 123.808 63.5639V62.8435C123.557 62.8861 123.309 62.9357 123.058 62.989Z" fill="black"/>
<path d="M123.808 63.2019V88.7561C123.561 88.8093 123.309 88.8625 123.058 88.9193C120.709 89.4587 118.369 90.0336 116.04 90.644C115.946 90.5446 115.856 90.4453 115.77 90.3459C113.338 87.6542 111.552 84.4966 110.533 81.0901C109.514 77.6836 109.287 74.1089 109.867 70.6116C109.886 70.4945 109.909 70.3738 109.931 70.2567C109.95 70.1432 109.972 70.026 109.995 69.9125C110.227 68.7504 110.548 67.6059 110.955 66.488C111.004 66.3532 111.053 66.2183 111.106 66.0834C112.25 65.7854 113.398 65.4991 114.55 65.2247C117.369 64.5362 120.204 63.9105 123.058 63.3474C123.305 63.2942 123.557 63.248 123.808 63.2019Z" fill="black"/>
<path d="M106.37 86.35C106.088 85.6965 105.544 85.1751 104.857 84.9004C104.17 84.6256 103.395 84.6199 102.703 84.8844L92.9654 88.6177C92.2748 88.8838 91.7241 89.3983 91.4343 90.048C91.1445 90.6978 91.1392 91.4298 91.4196 92.0832C91.7 92.7367 92.2431 93.2582 92.9298 93.5333C93.6164 93.8083 94.3905 93.8145 95.0819 93.5503L104.82 89.8171C105.511 89.5504 106.061 89.0359 106.352 88.3861C106.642 87.7364 106.649 87.0043 106.37 86.35ZM104.539 89.1571L94.8004 92.8938C94.293 93.0878 93.725 93.0834 93.221 92.8816C92.717 92.6799 92.3183 92.2971 92.1124 91.8176C91.9066 91.338 91.9104 90.8008 92.1231 90.3239C92.3358 89.847 92.74 89.4695 93.2468 89.2742L102.985 85.5409C103.492 85.3461 104.06 85.3497 104.564 85.5511C105.069 85.7524 105.468 86.1349 105.674 86.6144C105.88 87.0939 105.876 87.6312 105.663 88.108C105.45 88.5849 105.046 88.9622 104.539 89.1571Z" fill="black"/>
<path d="M123.808 69.728V83.6424C123.561 83.702 123.31 83.7494 123.058 83.7844C121.551 83.984 120.016 83.7505 118.651 83.1142C117.287 82.4778 116.157 81.4681 115.407 80.2162C114.657 78.9643 114.324 77.5281 114.449 76.0943C114.574 74.6606 115.152 73.2955 116.108 72.1766C116.194 72.0737 116.284 71.9743 116.382 71.8785C116.472 71.7791 116.57 71.6833 116.671 71.591C117.501 70.8149 118.509 70.2305 119.616 69.8834C120.724 69.5362 121.902 69.4357 123.058 69.5896C123.31 69.6216 123.561 69.6679 123.808 69.728Z" fill="white"/>
<path d="M123.058 45.5187V80.9382C123.309 80.8602 123.561 80.7856 123.808 80.7147V45.8416C123.557 45.7316 123.309 45.6251 123.058 45.5187ZM123.058 45.5187V80.9382C123.309 80.8602 123.561 80.7856 123.808 80.7147V45.8416C123.557 45.7316 123.309 45.6251 123.058 45.5187ZM123.058 45.5187V80.9382C123.309 80.8602 123.561 80.7856 123.808 80.7147V45.8416C123.557 45.7316 123.309 45.6251 123.058 45.5187ZM123.058 48.1057V88.9192C123.309 88.8625 123.561 88.8092 123.808 88.756V48.308C123.557 48.237 123.305 48.1696 123.058 48.1057ZM123.058 48.1057V88.9192C123.309 88.8625 123.561 88.8092 123.808 88.756V48.308C123.557 48.237 123.305 48.1696 123.058 48.1057ZM123.058 48.1057V88.9192C123.309 88.8625 123.561 88.8092 123.808 88.756V48.308C123.557 48.237 123.305 48.1696 123.058 48.1057ZM123.058 48.1057V88.9192C123.309 88.8625 123.561 88.8092 123.808 88.756V48.308C123.557 48.237 123.305 48.1696 123.058 48.1057ZM123.058 48.1057V89.2883C123.309 89.2315 123.557 89.1747 123.808 89.1215V48.308C123.557 48.237 123.305 48.1696 123.058 48.1057ZM286.766 14.5492H130.848C128.783 14.5524 126.803 15.3296 125.343 16.7105C123.883 18.0914 123.061 19.9634 123.058 21.9163V131.39C123.061 133.343 123.883 135.214 125.344 136.594C126.804 137.975 128.783 138.751 130.848 138.754H286.766C288.83 138.751 290.809 137.975 292.269 136.594C293.729 135.214 294.55 133.342 294.552 131.39V21.9163C294.551 19.9635 293.73 18.0912 292.27 16.71C290.81 15.3289 288.831 14.5518 286.766 14.5492ZM293.802 131.39C293.8 133.154 293.058 134.846 291.739 136.093C290.42 137.34 288.631 138.042 286.766 138.044H130.848C128.982 138.042 127.193 137.341 125.873 136.093C124.554 134.846 123.811 133.155 123.808 131.39V21.9163C123.811 20.1515 124.554 18.4597 125.873 17.2117C127.193 15.9638 128.982 15.2616 130.848 15.2589H286.766C288.632 15.261 290.421 15.9631 291.74 17.2113C293.059 18.4594 293.801 20.1516 293.802 21.9163V131.39ZM123.058 48.1057V88.5608C123.309 88.504 123.557 88.4473 123.808 88.3905V48.308C123.557 48.237 123.305 48.1696 123.058 48.1057ZM123.058 48.1057V88.9192C123.309 88.8625 123.561 88.8092 123.808 88.756V48.308C123.557 48.237 123.305 48.1696 123.058 48.1057ZM123.058 48.1057V88.9192C123.309 88.8625 123.561 88.8092 123.808 88.756V48.308C123.557 48.237 123.305 48.1696 123.058 48.1057ZM123.058 48.1057V88.9192C123.309 88.8625 123.561 88.8092 123.808 88.756V48.308C123.557 48.237 123.305 48.1696 123.058 48.1057ZM123.058 45.5187V80.9382C123.309 80.8602 123.561 80.7856 123.808 80.7147V45.8416C123.557 45.7316 123.309 45.6251 123.058 45.5187ZM123.058 45.5187V80.9382C123.309 80.8602 123.561 80.7856 123.808 80.7147V45.8416C123.557 45.7316 123.309 45.6251 123.058 45.5187Z" fill="#2F2E41"/>
<path d="M89.6316 82.9947C89.4845 82.6703 89.2639 82.3804 88.9855 82.1453C88.7071 81.9103 88.3776 81.7358 88.0202 81.6342C87.6627 81.5326 87.2861 81.5063 86.9168 81.5572C86.5475 81.6082 86.1944 81.7351 85.8826 81.929L78.6885 76.7017L78.3486 81.1484L85.2323 85.4306C85.6115 85.9045 86.1613 86.2303 86.7776 86.3464C87.3939 86.4625 88.0338 86.3608 88.576 86.0605C89.1183 85.7602 89.5253 85.2823 89.7198 84.7173C89.9144 84.1522 89.8829 83.5393 89.6316 82.9947Z" fill="#FFB6B6"/>
<path d="M60.6422 51.4477L58.2749 50.3898C58.2749 50.3898 54.4613 51.4042 56.314 56.1731L67.5266 75.9264L81.2157 83.5055L85.4833 79.9293L71.7843 69.6792L60.6422 51.4477Z" fill="#3F3D56"/>
</g>
<defs>
<clipPath id="clip0_21_422">
<rect width="353" height="154" fill="white"/>
</clipPath>
</defs>
</svg>
